<svg width="200" height="24" viewBox="0 0 200 24" fill="none" xmlns="http://www.w3.org/2000/svg">
<g clip-path="url(#clip0_139_232)">
<path d="M5.22428 12.0407L2.61214 14.6342L0 12.0407L2.61214 9.4471L5.22428 12.0407ZM11.5968 5.71351L16.0747 10.1881L18.6868 7.59454L14.2089 3.11993L11.5968 0.526367L8.9846 3.11993L4.47796 7.59454L7.09008 10.1881L11.5968 5.71351ZM20.5814 9.4471L17.9692 12.0407L20.5814 14.6342L23.1935 12.0407L20.5814 9.4471ZM11.5968 18.3393L7.1188 13.8932L4.47796 16.4868L8.95591 20.9329L11.568 23.5264L14.1802 20.9329L18.6868 16.4868L16.0747 13.8932L11.5968 18.3393ZM11.5968 14.6342L14.2089 12.0407L11.5968 9.4471L8.9846 12.0407L11.5968 14.6342ZM39.2395 14.8907V14.8622C39.2395 13.1807 38.321 12.3257 36.8569 11.7557C37.7755 11.2426 38.5218 10.4446 38.5218 9.01958V8.99108C38.5218 6.99604 36.9144 5.71351 34.3311 5.71351H28.4177V18.3393H34.4744C37.345 18.3393 39.2395 17.1993 39.2395 14.8907ZM35.7376 9.50411C35.7376 10.4446 34.9624 10.8436 33.7281 10.8436H31.1447V8.16457H33.9003C35.0774 8.16457 35.7376 8.62056 35.7376 9.4756V9.50411ZM36.455 14.5487C36.455 15.4893 35.7087 15.9167 34.4744 15.9167H31.1447V13.1522H34.3883C35.8237 13.1522 36.455 13.6652 36.455 14.5202V14.5487ZM45.0954 18.3393V5.71351H42.3109V18.3393H45.0954ZM60.1365 18.3393V5.71351H57.3809V13.4942L51.4104 5.71351H48.827V18.3393H51.5826V10.3306L57.7542 18.3678H60.1365V18.3393ZM75.6373 18.3393L70.1834 5.628H67.5997L62.1461 18.3393H64.9877L66.1646 15.5178H71.5324L72.7093 18.3393H75.6373ZM70.5564 13.0667H67.1692L68.8629 8.96258L70.5564 13.0667ZM88.9561 18.3393V5.71351H86.2005V13.4942L80.23 5.71351H77.6466V18.3393H80.4022V10.3306L86.5738 18.3678H88.9561V18.3393ZM103.423 16.3158L101.644 14.5202C100.639 15.4323 99.7493 16.0023 98.3139 16.0023C96.1324 16.0023 94.6398 14.2067 94.6398 12.0407V12.0122C94.6398 9.84609 96.1899 8.07906 98.3139 8.07906C99.5771 8.07906 100.582 8.62056 101.558 9.50411L103.337 7.45203C102.16 6.28351 100.725 5.514 98.3139 5.514C94.4101 5.514 91.6831 8.44958 91.6831 12.0407V12.0692C91.6831 15.6888 94.4676 18.5673 98.1992 18.5673C100.639 18.5673 102.103 17.7123 103.423 16.3158ZM115.336 18.3393V15.8598H108.447V13.2092H114.446V10.7296H108.447V8.16457H115.25V5.685H105.662V18.3108H115.336V18.3393Z" fill="#F0B90B"/>
<path d="M125.186 9.01186C125.186 10.001 125.762 10.4326 128.172 11.008C130.833 11.6555 132.218 12.6086 132.218 14.7127C132.218 17.0865 130.366 18.4892 127.722 18.4892C125.798 18.4892 123.981 17.8238 122.471 16.4751L123.801 14.8925C125.006 15.9356 126.211 16.529 127.776 16.529C129.143 16.529 130.006 15.8996 130.006 14.9285C130.006 14.0113 129.502 13.5258 127.164 12.9862C124.485 12.3388 122.974 11.5476 122.974 9.20968C122.974 7.01568 124.773 5.54102 127.272 5.54102C129.107 5.54102 130.563 6.09851 131.84 7.12358L130.653 8.79606C129.52 7.95083 128.387 7.50123 127.236 7.50123C125.942 7.50123 125.186 8.16663 125.186 9.01186Z" fill="#F0B90B"/>
<path d="M146.149 15.8824L147.588 17.1053L146.167 18.6879L144.656 17.3391C143.595 18.0764 142.3 18.526 140.826 18.526C136.959 18.526 134.262 15.5947 134.262 12.0339C134.262 8.47316 136.995 5.50586 140.862 5.50586C144.728 5.50586 147.426 8.43719 147.426 11.998C147.426 13.4366 146.958 14.7854 146.149 15.8824ZM143.02 15.8824L140.862 14.0481L142.282 12.4296L144.458 14.4078C144.89 13.7424 145.106 12.9151 145.106 12.0339C145.106 9.57016 143.325 7.53801 140.826 7.53801C138.326 7.53801 136.582 9.5342 136.582 11.998C136.582 14.4617 138.362 16.4939 140.862 16.4939C141.689 16.4939 142.426 16.2601 143.02 15.8824Z" fill="#F0B90B"/>
<path d="M160.673 5.72168V12.8612C160.673 16.6198 158.551 18.5081 155.26 18.5081C151.987 18.5081 149.9 16.6198 149.9 12.9691V5.72168H152.112V12.8792C152.112 15.217 153.317 16.4759 155.295 16.4759C157.256 16.4759 158.461 15.289 158.461 12.9691V5.72168H160.673Z" fill="#F0B90B"/>
<path d="M169.763 5.63184L175.302 18.3103H172.964L171.687 15.2711H165.735L164.44 18.3103H162.174L167.713 5.63184H169.763ZM170.878 13.3109L168.702 8.27543L166.544 13.3109H170.878Z" fill="#F0B90B"/>
<path d="M188.143 18.3102H185.536L182.442 13.9222H179.673V18.3102H177.461V5.72168H183.072C185.967 5.72168 187.748 7.25029 187.748 9.71405C187.748 11.8002 186.507 13.059 184.744 13.5446L188.143 18.3102ZM185.5 9.83994C185.5 8.4552 184.529 7.73585 182.892 7.73585H179.673V11.962H182.91C184.493 11.962 185.5 11.1348 185.5 9.83994Z" fill="#F0B90B"/>
<path d="M199.789 5.72168V7.69988H192.667V10.9729H198.979V12.9511H192.667V16.332H199.879V18.3102H190.455V5.72168H199.789Z" fill="#F0B90B"/>
</g>
<defs>
<clipPath id="clip0_139_232">
<rect width="200" height="22.8883" fill="white" transform="translate(0 0.526367)"/>
</clipPath>
</defs>
</svg>
