<svg width="170" height="41" viewBox="0 0 170 41" fill="none" xmlns="http://www.w3.org/2000/svg">
<g clip-path="url(#clip0_139_241)">
<mask id="mask0_139_241" style="mask-type:luminance" maskUnits="userSpaceOnUse" x="0" y="0" width="170" height="41">
<path d="M169.94 0.970703H0V40.9707H169.94V0.970703Z" fill="white"/>
</mask>
<g mask="url(#mask0_139_241)">
<path d="M55.8005 24.2209C56.3105 24.2209 56.6905 24.0809 56.9405 23.8009C57.1905 23.5209 57.3105 23.1109 57.3105 22.5709H60.8005L60.8205 22.6409C60.8505 23.9709 60.3905 25.0609 59.4305 25.9009C58.4805 26.7409 57.2605 27.1609 55.7805 27.1609C53.9305 27.1609 52.4905 26.5809 51.4905 25.4309C50.4805 24.2809 49.9805 22.7809 49.9805 20.9409V20.6809C49.9805 18.8509 50.4805 17.3509 51.4805 16.2009C52.4805 15.0409 53.9005 14.4609 55.7405 14.4609C57.2905 14.4609 58.5305 14.8909 59.4605 15.7609C60.3905 16.6309 60.8405 17.8109 60.8105 19.3009L60.7905 19.3709H57.3005C57.3005 18.7909 57.1705 18.3209 56.9205 17.9509C56.6605 17.5809 56.2805 17.4009 55.7605 17.4009C55.0405 17.4009 54.5305 17.7009 54.2405 18.2909C53.9505 18.8909 53.8005 19.6809 53.8005 20.6809V20.9409C53.8005 21.9709 53.9505 22.7709 54.2405 23.3509C54.5305 23.9309 55.0505 24.2209 55.7905 24.2209H55.8005Z" fill="#211B2E"/>
<path d="M69.3102 18.0509H67.9202C67.4802 18.0409 67.1202 18.1109 66.8502 18.2609C66.5702 18.4109 66.3602 18.6209 66.2302 18.8909V26.9209H62.4102V14.6809H66.0102L66.1502 16.4809C66.4102 15.8409 66.7502 15.3409 67.1702 14.9909C67.5902 14.6409 68.0902 14.4609 68.6502 14.4609C68.8302 14.4609 69.0202 14.4709 69.2002 14.5009C69.3902 14.5309 69.5502 14.5609 69.7002 14.6009L69.3302 18.0609L69.3102 18.0509Z" fill="#211B2E"/>
<path d="M76.5697 21.5304V21.6204H76.6497L78.6697 14.6904H82.7397L77.8697 28.7504C77.4897 29.6504 77.0097 30.4004 76.4097 30.9904C75.8097 31.5804 74.8697 31.8704 73.5697 31.8704C73.2397 31.8704 72.9697 31.8504 72.7597 31.8104C72.5497 31.7704 72.2197 31.6904 71.7597 31.5804L72.2197 28.8604C72.3297 28.8804 72.3997 28.9004 72.4597 28.9104C72.5097 28.9204 72.5797 28.9304 72.6597 28.9304C73.2597 28.9304 73.6997 28.8404 73.9797 28.6604C74.2597 28.4804 74.4697 28.2104 74.5997 27.8604L74.9097 27.0604L70.6797 14.6904H74.7397L76.5597 21.5304H76.5697Z" fill="#211B2E"/>
<path d="M95.0702 21.0609C95.0702 22.9009 94.6602 24.3809 93.8302 25.4909C93.0002 26.6009 91.8302 27.1609 90.3202 27.1609C89.7302 27.1609 89.2102 27.0509 88.7502 26.8209C88.2902 26.5909 87.9002 26.2709 87.5602 25.8409V31.6309H83.7402V14.6809H87.3102L87.4502 16.0309C87.8002 15.5309 88.2002 15.1409 88.6702 14.8709C89.1402 14.6009 89.6802 14.4609 90.3002 14.4609C91.8202 14.4609 92.9902 15.0409 93.8202 16.2109C94.6502 17.3809 95.0702 18.9209 95.0702 20.8209V21.0609ZM91.2602 20.8209C91.2602 19.7909 91.1102 18.9609 90.8102 18.3309C90.5102 17.7009 90.0302 17.3909 89.3602 17.3909C88.9302 17.3909 88.5702 17.4709 88.2702 17.6309C87.9702 17.7909 87.7402 18.0209 87.5602 18.3209V23.4309C87.7402 23.6909 87.9802 23.8909 88.2802 24.0209C88.5802 24.1509 88.9502 24.2109 89.3802 24.2109C90.0502 24.2109 90.5302 23.9309 90.8202 23.3809C91.1102 22.8309 91.2602 22.0509 91.2602 21.0609V20.8209Z" fill="#211B2E"/>
<path d="M101.28 11.6406V14.6806H103.35V17.3306H101.28V22.9406C101.28 23.3806 101.37 23.6906 101.55 23.8806C101.73 24.0706 101.97 24.1706 102.27 24.1706C102.51 24.1706 102.7 24.1706 102.84 24.1506C102.98 24.1406 103.16 24.1006 103.38 24.0606L103.65 26.8906C103.23 26.9906 102.85 27.0606 102.51 27.1006C102.17 27.1406 101.77 27.1606 101.31 27.1606C100.05 27.1606 99.0998 26.8206 98.4498 26.1506C97.7998 25.4806 97.4798 24.4206 97.4798 22.9606V17.3306H95.7598V14.6806H97.4798V11.6406H101.29H101.28Z" fill="#211B2E"/>
<path d="M104.301 20.6912C104.301 18.8512 104.821 17.3512 105.861 16.1912C106.901 15.0312 108.351 14.4512 110.211 14.4512C112.071 14.4512 113.531 15.0312 114.581 16.1912C115.621 17.3512 116.141 18.8512 116.141 20.6912V20.9312C116.141 22.7812 115.621 24.2812 114.581 25.4312C113.541 26.5812 112.091 27.1612 110.241 27.1612C108.391 27.1612 106.901 26.5812 105.861 25.4312C104.821 24.2812 104.301 22.7812 104.301 20.9312V20.6912ZM108.121 20.9312C108.121 21.9612 108.281 22.7612 108.601 23.3412C108.921 23.9212 109.471 24.2212 110.231 24.2212C110.991 24.2212 111.511 23.9312 111.841 23.3412C112.161 22.7512 112.331 21.9512 112.331 20.9312V20.6912C112.331 19.6912 112.171 18.9012 111.841 18.3012C111.521 17.7012 110.971 17.4012 110.211 17.4012C109.451 17.4012 108.921 17.7012 108.601 18.3012C108.281 18.9012 108.121 19.7012 108.121 20.6912V20.9312Z" fill="#211B2E"/>
<path d="M121.342 14.6809L121.492 16.4009C121.892 15.7909 122.382 15.3109 122.972 14.9709C123.562 14.6309 124.212 14.4609 124.942 14.4609C126.142 14.4609 127.082 14.8509 127.752 15.6209C128.422 16.4009 128.762 17.6309 128.762 19.3309V26.9209H124.942V19.3209C124.942 18.6209 124.792 18.1209 124.502 17.8309C124.212 17.5409 123.782 17.3909 123.222 17.3909C122.872 17.3909 122.552 17.4509 122.282 17.5809C122.002 17.7109 121.772 17.8909 121.572 18.1109V26.9109H117.762V14.6809H121.342Z" fill="#211B2E"/>
<path d="M136.432 27.1611C134.632 27.1611 133.192 26.5911 132.122 25.4611C131.052 24.3311 130.512 22.9111 130.512 21.2111V20.7811C130.512 18.9211 131.002 17.4011 131.972 16.2211C132.952 15.0411 134.342 14.4511 136.162 14.4611C137.822 14.4611 139.122 14.9611 140.062 15.9511C141.002 16.9511 141.472 18.2911 141.472 20.0011V22.0011H134.482L134.462 22.0711C134.542 22.7011 134.802 23.2111 135.232 23.6111C135.662 24.0111 136.232 24.2211 136.952 24.2211C137.672 24.2211 138.252 24.1611 138.692 24.0511C139.132 23.9411 139.672 23.7411 140.342 23.4611L141.242 25.7911C140.702 26.1811 140.012 26.5111 139.162 26.7711C138.312 27.0311 137.402 27.1611 136.432 27.1611ZM136.162 17.4011C135.612 17.4011 135.202 17.6011 134.922 17.9911C134.642 18.3811 134.482 18.9111 134.422 19.5611L134.452 19.6211H137.742V19.3311C137.742 18.7111 137.612 18.2411 137.362 17.9111C137.102 17.5811 136.702 17.4111 136.162 17.4111V17.4011Z" fill="#211B2E"/>
<path d="M153.59 21.7804H153.66L154.98 14.6904H158.51L155.64 26.9304H152.41L150.42 20.4404H150.35L148.35 26.9304H145.13L142.25 14.6904H145.78L147.13 21.8404H147.2L149.19 14.6904H151.6L153.61 21.7804H153.59Z" fill="#211B2E"/>
<path d="M166.262 23.4812C166.262 23.1812 166.092 22.9112 165.752 22.6712C165.412 22.4312 164.782 22.2212 163.882 22.0312C162.452 21.7512 161.382 21.3212 160.662 20.7312C159.942 20.1412 159.572 19.3412 159.572 18.3212C159.572 17.2412 160.022 16.3312 160.932 15.5812C161.832 14.8312 163.062 14.4512 164.612 14.4512C166.242 14.4512 167.532 14.8112 168.502 15.5412C169.462 16.2712 169.922 17.2112 169.882 18.3612L169.862 18.4312H166.152C166.152 17.9512 166.032 17.5812 165.782 17.3312C165.532 17.0812 165.142 16.9612 164.602 16.9612C164.202 16.9612 163.862 17.0712 163.592 17.2912C163.322 17.5112 163.182 17.7912 163.182 18.1312C163.182 18.4712 163.342 18.7312 163.652 18.9612C163.962 19.1912 164.592 19.3912 165.542 19.5712C167.032 19.8612 168.142 20.3012 168.862 20.8912C169.582 21.4712 169.942 22.3012 169.942 23.3712C169.942 24.4412 169.452 25.3812 168.482 26.0912C167.502 26.8012 166.212 27.1612 164.612 27.1612C163.012 27.1612 161.632 26.7412 160.662 25.8912C159.692 25.0512 159.232 24.1012 159.272 23.0612L159.292 22.9912H162.752C162.762 23.5712 162.942 23.9912 163.282 24.2512C163.622 24.5112 164.092 24.6312 164.712 24.6312C165.222 24.6312 165.612 24.5312 165.872 24.3312C166.132 24.1312 166.272 23.8512 166.272 23.4812H166.262Z" fill="#211B2E"/>
<path d="M29.9965 20.9727L19.998 30.9712L29.9965 40.9697L39.995 30.9712L29.9965 20.9727Z" fill="#351774"/>
<path d="M30 0.970703H10L20 10.9707L30 20.9707L40 10.9707L30 0.970703Z" fill="#DA5991"/>
<path d="M20 30.9707L10 20.9707L0 30.9707L10 40.9707H30L20 30.9707Z" fill="#591C7E"/>
<path d="M10 0.970703L0 10.9707V30.9707L10 20.9707L20 10.9707L10 0.970703Z" fill="#A72E83"/>
</g>
</g>
<defs>
<clipPath id="clip0_139_241">
<rect width="170" height="40" fill="white" transform="translate(0 0.970703)"/>
</clipPath>
</defs>
</svg>
