<svg width="109" height="36" viewBox="0 0 109 36" fill="none" xmlns="http://www.w3.org/2000/svg">
<g clip-path="url(#clip0_139_277)">
<path d="M52.7217 12.7505L49.9493 26.6194C48.379 34.4776 44.1736 35.1402 38.8596 35.1871C36.5032 35.1871 35.4862 35.0933 33.7765 34.4776C29.9413 32.9157 28.5561 36.4655 23.4272 35.1871C21.3474 34.6672 18.8059 33.1053 16.4494 35.4236C18.2506 33.246 20.8399 33.5295 23.1028 33.8618C27.7242 34.5245 28.787 29.317 24.3507 29.79C21.1623 30.1203 18.8974 33.4357 14.5547 31.2581C11.9216 29.9327 10.212 27.329 6.8385 27.8489C5.40552 28.0854 2.03404 29.9307 0 28.795C2.17136 29.79 4.75869 27.8958 6.42254 27.327C9.79601 26.1913 11.5514 27.6573 13.5854 28.795C17.144 30.783 20.0538 29.0784 20.6548 27.7531C21.6261 25.5755 20.0538 23.1614 16.2643 23.9178C14.8791 24.2012 10.6279 25.5755 8.77899 23.3021C10.6737 25.1473 14.0472 23.6813 15.6633 23.1124C20.1453 21.5506 21.4847 22.9228 24.3507 24.7681C28.5561 27.4656 30.4031 25.0046 30.9583 22.6863C31.6967 19.6095 30.9583 19.373 28.5561 19.5626C26.938 19.7053 25.3677 19.5157 23.5188 17.7174C20.9315 15.1605 18.4815 16.4858 17.2813 17.5746C18.8994 15.917 20.9315 14.924 24.4442 16.7224C30.7275 19.9419 33.7785 10.5688 28.5561 10.2854C23.889 10.0489 22.8719 12.463 17.9282 13.5518C15.9877 13.9779 12.4749 14.0248 9.93533 11.6576C13.3088 14.3082 20.1931 12.8891 20.3782 9.33727C20.5633 5.502 12.9844 3.13681 5.82347 9.57379C9.798 5.64473 14.0472 4.17668 17.8366 4.46213C21.3952 4.74555 22.7346 6.49701 25.6921 7.2086C29.2965 8.06089 34.1009 7.01898 35.0264 4.84138C35.8583 2.90029 33.4561 1.7646 29.7582 3.32644C26.9858 4.50903 25.2304 4.84138 21.8569 2.90029C26.1081 5.0779 28.2795 2.71067 30.5901 1.43225C35.2115 -1.1246 37.7988 2.23763 42.3724 2.1418C43.5745 2.04801 44.8682 2.04801 46.2076 2.04801H51.6609L50.3215 8.62771H47.5491L48.2874 4.88827C42.7426 4.88827 41.1723 5.64473 40.1553 10.6626L38.7701 17.385L37.0604 25.9058C35.8583 31.9166 36.2743 32.3428 38.8616 32.3428C40.9414 32.3428 42.2809 32.0125 43.3894 26.5685L45.6066 15.5867H42.9735V12.7464H52.7237L52.7217 12.7505Z" fill="url(#paint0_linear_139_277)"/>
<path d="M74.3449 11.5186V14.3588C69.4011 14.3588 63.2552 15.1153 60.9445 26.8556L59.2807 35.1867H52.7188L57.386 11.9447C59.5573 11.5185 62.6063 11.5186 63.9935 11.5186L63.3467 14.785C66.7659 11.8978 70.8321 11.5186 74.3429 11.5186H74.3449Z" fill="url(#paint1_linear_139_277)"/>
<path d="M77.1633 11.9446C79.3346 11.5184 82.3837 11.5185 83.7709 11.5185L79.058 35.1866H72.4961L77.1633 11.9446ZM85.8965 1.10352L84.372 8.67823L80.2601 1.10352H85.8965Z" fill="url(#paint2_linear_139_277)"/>
<path d="M90.3798 1.10645H97.4492L90.6107 35.1896H84.0488L90.3798 3.6164V1.10645Z" fill="url(#paint3_linear_139_277)"/>
<path d="M101.931 1.10645H109L102.161 35.1896H95.5996L101.931 3.6164V1.10645Z" fill="url(#paint4_linear_139_277)"/>
</g>
<defs>
<linearGradient id="paint0_linear_139_277" x1="20.002" y1="18.0057" x2="150.861" y2="18.0057" gradientUnits="userSpaceOnUse">
<stop stop-color="#DB4646"/>
<stop offset="1" stop-color="#F9A11E"/>
</linearGradient>
<linearGradient id="paint1_linear_139_277" x1="20.001" y1="18.0053" x2="150.86" y2="18.0053" gradientUnits="userSpaceOnUse">
<stop stop-color="#DB4646"/>
<stop offset="1" stop-color="#F9A11E"/>
</linearGradient>
<linearGradient id="paint2_linear_139_277" x1="20.0013" y1="18.0052" x2="150.86" y2="18.0052" gradientUnits="userSpaceOnUse">
<stop stop-color="#DB4646"/>
<stop offset="1" stop-color="#F9A11E"/>
</linearGradient>
<linearGradient id="paint3_linear_139_277" x1="20.0026" y1="18.0061" x2="150.862" y2="18.0061" gradientUnits="userSpaceOnUse">
<stop stop-color="#DB4646"/>
<stop offset="1" stop-color="#F9A11E"/>
</linearGradient>
<linearGradient id="paint4_linear_139_277" x1="20.002" y1="18.0061" x2="150.861" y2="18.0061" gradientUnits="userSpaceOnUse">
<stop stop-color="#DB4646"/>
<stop offset="1" stop-color="#F9A11E"/>
</linearGradient>
<clipPath id="clip0_139_277">
<rect width="109" height="35" fill="white" transform="translate(0 0.470703)"/>
</clipPath>
</defs>
</svg>
