<svg width="200" height="36" viewBox="0 0 200 36" fill="none" xmlns="http://www.w3.org/2000/svg">
<path d="M58.8087 13.3308H52.8785V28.2669H48.6002V13.3308H42.6973V9.28906H58.8087V13.3308Z" fill="#1C2642"/>
<path d="M60.3271 20.0219H65.7156C65.6795 19.4153 65.4358 18.8888 64.9845 18.4427C64.5513 17.9965 63.8923 17.7735 63.0079 17.7735C62.2135 17.7735 61.5817 18.0055 61.1123 18.4694C60.643 18.9334 60.3812 19.4509 60.3271 20.0219ZM66.0135 23.4749L69.4524 24.4385C69.1094 25.6698 68.3964 26.6869 67.3132 27.49C66.2301 28.2751 64.8762 28.6677 63.2515 28.6677C61.3019 28.6677 59.6412 28.0253 58.2692 26.7405C56.9153 25.4556 56.2383 23.7336 56.2383 21.5744C56.2383 19.5045 56.8972 17.8181 58.215 16.5155C59.5508 15.2128 61.1304 14.5615 62.9537 14.5615C65.0477 14.5615 66.6904 15.1683 67.8818 16.3816C69.0913 17.5772 69.6961 19.2457 69.6961 21.3871C69.6961 22.0651 69.669 22.4845 69.6148 22.6451H60.2458C60.2819 23.3767 60.5979 23.9924 61.1936 24.4921C61.7893 24.9738 62.4933 25.2148 63.3057 25.2148C64.6957 25.2148 65.5983 24.6348 66.0135 23.4749Z" fill="#1C2642"/>
<path d="M77.1855 18.3089C76.301 18.3089 75.5608 18.6033 74.9651 19.1922C74.3874 19.7811 74.0986 20.593 74.0986 21.6279C74.0986 22.6451 74.3965 23.4481 74.9922 24.037C75.6059 24.6258 76.3551 24.9203 77.2396 24.9203C77.9797 24.9203 78.5845 24.7329 79.0539 24.3582C79.5413 23.9656 79.8662 23.4928 80.0286 22.9396L83.6571 24.037C83.3322 25.304 82.6011 26.3925 81.4638 27.3026C80.3446 28.2127 78.9365 28.6677 77.2396 28.6677C75.2178 28.6677 73.5029 28.0074 72.0948 26.6869C70.7048 25.3485 70.0098 23.6623 70.0098 21.6279C70.0098 19.5758 70.6868 17.8896 72.0407 16.569C73.4126 15.2307 75.1005 14.5615 77.1042 14.5615C78.8553 14.5615 80.2904 15.0076 81.4097 15.8998C82.5288 16.7921 83.2509 17.8896 83.5759 19.1922L79.8933 20.2896C79.7308 19.7185 79.4239 19.2457 78.9726 18.871C78.5213 18.4962 77.9256 18.3089 77.1855 18.3089Z" fill="#1C2642"/>
<path d="M88.9245 20.451V28.267H84.8086V8.8877H88.9245V15.8203C89.7367 15.0173 90.883 14.6159 92.3633 14.6159C94.0422 14.6159 95.3058 15.1155 96.154 16.1148C97.0209 17.0962 97.4544 18.3632 97.4544 19.9157V28.267H93.3382V20.6116C93.3382 19.9157 93.1486 19.3625 92.7695 18.9521C92.4085 18.5237 91.8669 18.3097 91.1449 18.3097C90.513 18.3097 89.9895 18.5149 89.5743 18.9253C89.1772 19.3179 88.9606 19.8264 88.9245 20.451Z" fill="#1C2642"/>
<path d="M105.733 24.9203C106.581 24.9203 107.294 24.6348 107.872 24.0637C108.467 23.4928 108.766 22.6719 108.766 21.6012C108.766 20.5305 108.467 19.7185 107.872 19.1654C107.294 18.5944 106.581 18.3089 105.733 18.3089C104.903 18.3089 104.19 18.5944 103.594 19.1654C102.998 19.7364 102.7 20.5483 102.7 21.6012C102.7 22.654 102.998 23.4749 103.594 24.0637C104.19 24.6348 104.903 24.9203 105.733 24.9203ZM105.733 14.5615C107.773 14.5615 109.469 15.2217 110.823 16.5422C112.195 17.8628 112.882 19.549 112.882 21.6012C112.882 23.6533 112.195 25.3485 110.823 26.6869C109.469 28.0074 107.773 28.6677 105.733 28.6677C103.711 28.6677 102.014 27.9985 100.642 26.6602C99.2701 25.3218 98.584 23.6355 98.584 21.6012C98.584 19.5669 99.2701 17.8896 100.642 16.569C102.014 15.2307 103.711 14.5615 105.733 14.5615Z" fill="#1C2642"/>
<path d="M118.294 33.3526H114.178V14.9637H118.158V16.3288C118.465 15.8649 118.97 15.4723 119.674 15.1511C120.396 14.8121 121.208 14.6426 122.111 14.6426C124.025 14.6426 125.541 15.2939 126.66 16.5965C127.798 17.8813 128.366 19.5409 128.366 21.5751C128.366 23.6095 127.761 25.2868 126.552 26.6074C125.361 27.91 123.827 28.5613 121.949 28.5613C120.251 28.5613 119.033 28.1152 118.294 27.223V33.3526ZM123.438 24.0645C124.034 23.4756 124.332 22.6547 124.332 21.6019C124.332 20.5491 124.034 19.7372 123.438 19.1662C122.86 18.5951 122.138 18.3096 121.272 18.3096C120.424 18.3096 119.701 18.5951 119.106 19.1662C118.528 19.7372 118.239 20.5491 118.239 21.6019C118.239 22.6547 118.528 23.4756 119.106 24.0645C119.701 24.6356 120.424 24.921 121.272 24.921C122.138 24.921 122.86 24.6356 123.438 24.0645Z" fill="#1C2642"/>
<path d="M132.78 20.0219H138.169C138.134 19.4153 137.889 18.8888 137.438 18.4427C137.005 17.9965 136.346 17.7735 135.462 17.7735C134.667 17.7735 134.035 18.0055 133.566 18.4694C133.096 18.9334 132.835 19.4509 132.78 20.0219ZM138.467 23.4749L141.906 24.4385C141.563 25.6698 140.85 26.6869 139.767 27.49C138.684 28.2751 137.33 28.6677 135.705 28.6677C133.756 28.6677 132.094 28.0253 130.723 26.7405C129.369 25.4556 128.691 23.7336 128.691 21.5744C128.691 19.5045 129.351 17.8181 130.668 16.5155C132.004 15.2128 133.584 14.5615 135.407 14.5615C137.501 14.5615 139.144 15.1683 140.335 16.3816C141.545 17.5772 142.15 19.2457 142.15 21.3871C142.15 22.0651 142.123 22.4845 142.068 22.6451H132.699C132.735 23.3767 133.051 23.9924 133.647 24.4921C134.243 24.9738 134.947 25.2148 135.759 25.2148C137.149 25.2148 138.052 24.6348 138.467 23.4749Z" fill="#1C2642"/>
<path d="M156.681 8.8877V25.8847C156.681 26.6877 156.717 27.4818 156.789 28.267H152.835C152.763 27.8387 152.727 27.4104 152.727 26.9821C152.403 27.4461 151.915 27.8298 151.265 28.1331C150.633 28.4186 149.92 28.5614 149.126 28.5614C147.212 28.5614 145.624 27.9101 144.361 26.6074C143.096 25.2869 142.465 23.6095 142.465 21.5752C142.465 19.5766 143.078 17.926 144.306 16.6233C145.534 15.3028 147.095 14.6426 148.99 14.6426C150.832 14.6426 152.041 15.0976 152.619 16.0077V8.8877H156.681ZM147.474 19.1662C146.896 19.7372 146.607 20.5491 146.607 21.6019C146.607 22.6548 146.896 23.4757 147.474 24.0645C148.07 24.6356 148.792 24.9211 149.64 24.9211C150.489 24.9211 151.202 24.6356 151.78 24.0645C152.375 23.4757 152.673 22.6548 152.673 21.6019C152.673 20.5491 152.375 19.7372 151.78 19.1662C151.202 18.5952 150.489 18.3097 149.64 18.3097C148.792 18.3097 148.07 18.5952 147.474 19.1662Z" fill="#1C2642"/>
<path d="M163.152 28.2667H159.036V14.9635H163.152V28.2667ZM159.388 12.5812C158.918 12.1174 158.684 11.5552 158.684 10.8949C158.684 10.2347 158.918 9.6726 159.388 9.20864C159.857 8.74468 160.417 8.5127 161.066 8.5127C161.734 8.5127 162.303 8.74468 162.773 9.20864C163.26 9.6726 163.504 10.2347 163.504 10.8949C163.504 11.5552 163.26 12.1174 162.773 12.5812C162.303 13.0452 161.734 13.2772 161.066 13.2772C160.417 13.2772 159.857 13.0452 159.388 12.5812Z" fill="#1C2642"/>
<path d="M164.59 24.5991C164.59 23.4749 164.96 22.5737 165.7 21.8956C166.44 21.1997 167.397 20.7625 168.57 20.5841L171.738 20.1022C172.388 20.013 172.713 19.7096 172.713 19.1922C172.713 18.7818 172.532 18.4427 172.172 18.175C171.828 17.8896 171.351 17.7467 170.736 17.7467C170.05 17.7467 169.5 17.9431 169.085 18.3357C168.687 18.7103 168.471 19.1654 168.435 19.7008L164.861 18.9781C164.951 17.8717 165.502 16.8635 166.512 15.9534C167.541 15.0254 168.958 14.5615 170.763 14.5615C172.803 14.5615 174.302 15.0433 175.259 16.0069C176.233 16.9705 176.721 18.2018 176.721 19.7008V26.2051C176.721 27.0438 176.775 27.7308 176.883 28.2662H173.174C173.084 27.9093 173.038 27.4096 173.038 26.7673C172.262 28.0164 170.998 28.6409 169.247 28.6409C167.821 28.6409 166.684 28.2483 165.836 27.4632C165.005 26.6602 164.59 25.7054 164.59 24.5991ZM170.249 25.6965C170.953 25.6965 171.54 25.4914 172.009 25.0809C172.479 24.6705 172.713 23.9924 172.713 23.0466V22.4577L170.168 22.8593C169.157 23.0198 168.651 23.5106 168.651 24.3314C168.651 24.7061 168.777 25.0274 169.03 25.295C169.301 25.5627 169.708 25.6965 170.249 25.6965Z" fill="#1C2642"/>
<path d="M23.2249 20.3954C23.2251 20.6264 23.2867 20.8534 23.4036 21.0534C23.5205 21.2534 23.6886 21.4195 23.8909 21.535L28.0831 23.9271C28.2854 24.0424 28.5149 24.1031 28.7484 24.103C28.9819 24.1029 29.2112 24.042 29.4133 23.9266C29.6155 23.8111 29.7835 23.645 29.9001 23.4451C30.0169 23.2452 30.0783 23.0184 30.0783 22.7875V10.1798C30.0783 9.94916 30.017 9.72249 29.9003 9.52269C29.7837 9.3229 29.6158 9.15699 29.4137 9.04164L18.3682 2.74125C18.166 2.62602 17.9367 2.56538 17.7033 2.56543C17.47 2.56548 17.2407 2.62621 17.0385 2.74152C16.8364 2.85684 16.6685 3.02267 16.5517 3.2224C16.4349 3.42213 16.3732 3.64872 16.373 3.87942V8.66504C16.3731 8.89588 16.4346 9.12264 16.5512 9.32263C16.6679 9.52262 16.8355 9.68882 17.0376 9.80461L22.559 12.9527C22.7613 13.0679 22.9292 13.2337 23.0459 13.4336C23.1626 13.6334 23.2239 13.8602 23.2236 14.0909L23.2249 20.3954Z" fill="#82A5FF"/>
<path d="M15.0408 18.7641V25.0686C15.0407 25.2995 15.1021 25.5264 15.2187 25.7264C15.3354 25.9265 15.5032 26.0926 15.7054 26.2082L19.8976 28.6003C20.0999 28.7156 20.3293 28.7763 20.5628 28.7762C20.7963 28.776 21.0257 28.7151 21.2279 28.5996C21.4301 28.4842 21.598 28.3181 21.7147 28.1182C21.8313 27.9184 21.8928 27.6915 21.8928 27.4607V14.853C21.8927 14.622 21.8311 14.395 21.7141 14.1951C21.5973 13.995 21.4291 13.8289 21.2268 13.7134L10.1827 7.41023C9.98054 7.29455 9.75116 7.23356 9.51763 7.2334C9.28408 7.23323 9.0546 7.2939 8.85232 7.4093C8.65004 7.52469 8.48208 7.69074 8.36537 7.89071C8.24865 8.09069 8.1873 8.31754 8.1875 8.54841V13.3341C8.18716 13.5648 8.24843 13.7915 8.36513 13.9914C8.48182 14.1912 8.64979 14.3571 8.85209 14.4722L14.3762 17.6245C14.5783 17.7402 14.7462 17.9064 14.8628 18.1064C14.9795 18.3063 15.0408 18.5332 15.0408 18.7641Z" fill="#0077CC"/>
<path d="M13.0407 18.3859L1.9952 12.087C1.7929 11.9717 1.56347 11.911 1.32997 11.9111C1.09646 11.9112 0.867098 11.9721 0.664915 12.0876C0.462732 12.2031 0.294854 12.3691 0.17814 12.569C0.0614257 12.7689 -1.22443e-05 12.9957 3.11944e-08 13.2265V25.8356C-5.05215e-05 26.0664 0.061343 26.293 0.178006 26.4928C0.294669 26.6926 0.462488 26.8585 0.664592 26.9738L7.51795 30.8793L11.7101 33.2714C11.9122 33.3871 12.1416 33.4481 12.3751 33.4482C12.6087 33.4484 12.8382 33.3878 13.0405 33.2724C13.2428 33.157 13.4107 32.991 13.5275 32.791C13.6441 32.591 13.7055 32.3641 13.7053 32.1333V19.5255C13.7052 19.2947 13.6437 19.0679 13.5271 18.8679C13.4104 18.6679 13.2427 18.5017 13.0407 18.3859Z" fill="#004ED6"/>
</svg>
