<svg width="27" height="24" viewBox="0 0 27 24" fill="none" xmlns="http://www.w3.org/2000/svg">
<path d="M21.4622 0.528907C21.362 0.862933 21.2486 1.193 21.1313 1.52142L21.0144 1.87035C20.8651 2.24396 20.7256 2.53333 20.4697 2.84477C20.1025 2.9954 19.7661 3.05162 19.3738 3.1084C18.2206 3.30566 17.501 3.90782 16.8305 4.82979L17.1632 4.62431L17.6059 4.35421L18.042 4.0867C18.6427 3.74823 19.1129 3.50644 19.808 3.50644L18.6501 5.8223H19.1463L19.2704 5.47078C19.8448 4.14973 19.8448 4.14973 20.4697 3.83728L20.5214 4.38523C20.6315 4.97608 20.6787 5.11232 21.0951 5.46133C21.5657 3.41311 21.6907 1.29044 21.4622 0.528907Z" fill="#2F90DB" fill-opacity="0.8"/>
<path d="M1.83102 10.0611C1.25327 10.3005 0.762624 10.5382 0.288619 10.9503C0.000667502 11.5137 -0.0788267 11.8024 0.0818461 12.4184C1.46179 14.335 4.17328 15.672 6.44076 16.1874L6.73994 16.2437C5.90488 18.1148 5.38624 19.9697 5.58201 22.0333C5.83753 22.5443 6.12937 22.8313 6.57452 23.1912C8.15821 23.437 8.15821 23.437 11.1387 21.7739C11.4568 21.5929 11.7751 21.4124 12.0937 21.2324L12.56 20.9717C12.9436 20.7537 13.2989 20.5642 13.7166 20.4223C14.0397 20.3431 14.0397 20.3431 14.3505 20.5853C15.0418 21.1939 15.7209 21.7569 16.5823 22.0953L16.9959 22.1987V22.5296L17.0216 22.5437C18.4889 23.3519 20.2593 24.3271 21.9584 23.8529C21.9584 23.5221 21.9584 23.5221 21.7339 23.2944C21.4521 23.0371 21.4521 23.0371 21.2703 22.714C20.8584 21.943 20.4249 21.1894 19.9036 20.4866C19.5017 20.0664 19.1574 20.017 18.588 19.9966C17.9136 20.0402 17.748 20.1067 17.1613 19.7278C16.8305 19.3866 16.8305 19.3866 16.4479 19.1798L16.1688 19.0558V18.7249C17.1113 19.444 17.7975 19.6753 18.9809 19.552C18.3412 18.5925 18.1445 17.7106 17.9884 16.5745H18.3192L18.2779 17.0087C18.3522 18.0117 18.3522 18.0117 19.808 19.3866C19.9631 18.9369 20.112 18.4977 20.3043 18.0633C20.7075 17.5773 20.7075 17.5773 20.9659 17.0708C20.8492 16.6362 20.6801 16.2713 20.4723 15.8728L20.3043 15.582L20.8858 15.4721C23.2075 15.01 25.5245 14.3484 26.921 12.2736C27.0454 11.6713 27.0381 11.1439 26.7116 10.6039C25.4209 9.18533 22.4832 8.42182 20.6512 8.17563L20.3043 8.13816C20.4948 7.78918 20.6365 7.47124 20.7398 7.0862L20.8212 6.69075L20.9052 6.29012L20.9659 5.98772C21.0116 5.81342 21.0546 5.63765 21.0951 5.46133C20.6787 5.11232 20.6315 4.97608 20.5214 4.38523L20.4697 3.83728C19.8448 4.14973 19.8448 4.14973 19.2704 5.47078L19.1463 5.8223H18.6501L19.808 3.50644C19.1129 3.50644 18.6427 3.74823 18.042 4.0867L17.6059 4.35421L17.1632 4.62431L16.8305 4.82979C17.501 3.90782 18.2206 3.30566 19.3738 3.1084C19.7661 3.05162 20.1025 2.9954 20.4697 2.84477C20.7256 2.53333 20.8651 2.24396 21.0144 1.87035L21.1313 1.52142C21.2486 1.193 21.362 0.862933 21.4622 0.528907C21.0338 0.117651 20.8261 0.0344794 20.2215 -0.00870281C17.9438 0.153994 15.6772 2.07708 14.1637 3.66863C13.9716 3.87519 13.7769 4.07947 13.5783 4.2799L13.3463 4.50929L13.0258 4.82979V4.49895C12.0043 2.79635 10.5528 0.757591 8.55954 0.19807C7.88288 0.172001 7.28593 0.177019 6.76062 0.632294L6.57452 1.02516C6.12814 1.85179 6.01801 2.47403 6.05307 3.41081L6.07827 3.83728C6.11367 5.20611 6.49498 6.44746 6.89567 7.74658L7.07078 8.30358C6.08161 8.30358 6.08161 8.30358 3.41057 9.40723L2.88362 9.62692L2.34698 9.84662L1.83102 10.0611Z" fill="#2F90DB" fill-opacity="0.8"/>
<path d="M10.71 15.2512L11.0408 15.0857L11.5267 15.3132C12.3101 15.6718 13.1603 15.7773 14.0183 15.7474C14.7485 15.0172 14.551 13.8824 14.5559 12.9146L14.5663 12.4158C14.5715 11.4112 14.4553 10.5827 14.1093 9.63734C14.0183 9.29609 14.0183 9.29609 14.1837 8.79983C15.1081 9.49035 15.65 10.207 16.1894 11.2191C16.921 12.5793 17.5449 13.2431 19.0636 13.7107L19.3899 13.817C20.408 14.143 21.3593 14.2896 22.4237 14.3517L22.771 14.3733C23.0515 14.3907 23.332 14.4075 23.6126 14.4241V14.7549C22.5198 15.1037 21.4331 15.3778 20.3042 15.582L20.4722 15.8728C20.6801 16.2713 20.8492 16.6362 20.9659 17.0708C20.7074 17.5773 20.7074 17.5773 20.3042 18.0633C20.1119 18.4977 19.9631 18.9369 19.808 19.3866C18.3521 18.0117 18.3521 18.0117 18.2779 17.0087L18.3192 16.5745H17.9884C18.1445 17.7106 18.3412 18.5925 18.9809 19.552C17.7975 19.6753 17.1113 19.444 16.1688 18.7249V19.0558L16.4479 19.1798C16.8304 19.3866 16.8304 19.3866 17.1613 19.7278C17.748 20.1067 17.9136 20.0402 18.588 19.9966C19.1574 20.017 19.5017 20.0664 19.9035 20.4866C20.4249 21.1894 20.8583 21.943 21.2703 22.714C21.4521 23.0371 21.4521 23.0371 21.7338 23.2944C21.9584 23.5221 21.9584 23.5221 21.9584 23.8529C20.2592 24.3271 18.4889 23.3519 17.0215 22.5437L16.9959 22.5296C15.8559 21.9252 15.2762 21.4971 14.3278 20.5949C14.0402 20.3484 14.0402 20.3484 13.7185 20.3895C13.3796 20.5347 13.0756 20.701 12.757 20.8857C12.1987 21.2062 12.1987 21.2062 11.8679 21.2062C12.0428 20.843 12.2129 20.5259 12.4572 20.2034C12.8288 19.444 12.9542 18.7408 12.8604 17.8978C12.3656 16.8544 11.5491 16.0289 10.71 15.2512Z" fill="#2F90DB"/>
<path d="M18.6497 20.379C18.8151 20.2136 18.8151 20.2136 19.2102 20.1659C19.6422 20.2136 19.6422 20.2136 19.8953 20.4638C19.964 20.5785 20.0328 20.6931 20.1036 20.8113C20.2194 20.9982 20.2194 20.9982 20.3375 21.1889C20.4151 21.3208 20.4927 21.4527 20.5727 21.5886C20.7294 21.8467 20.8866 22.1046 21.0444 22.3621C21.1128 22.4773 21.1812 22.5925 21.2516 22.7112C21.4524 23.0347 21.4524 23.0347 21.7361 23.2946C21.9581 23.5219 21.9581 23.5219 21.9581 23.8528C20.9606 24.0913 20.0521 24.0464 19.146 23.5219C18.5282 22.6433 18.5431 21.4128 18.6497 20.379Z" fill="#2F90DB" fill-opacity="0.8"/>
<path d="M18.6497 20.379C18.8151 20.2136 18.8151 20.2136 19.2102 20.1659C19.6422 20.2136 19.6422 20.2136 19.8953 20.4638L20.1036 20.8113L20.3375 21.1889L20.5727 21.5886C20.7294 21.8467 20.8866 22.1046 21.0444 22.3621L21.2516 22.7112C21.4524 23.0347 21.4524 23.0347 21.7361 23.2946C21.9581 23.5219 21.9581 23.5219 21.9581 23.8528C21.9581 23.8528 22.8639 23.5851 22.9506 23.1084C23.116 22.1986 22.9612 21.2897 22.7025 20.1659C22.2506 18.2028 20.3375 15.5818 20.3375 15.5818L16.003 16.2435L15.7549 19.4692L19.146 23.5219C18.5282 22.6433 18.5431 21.4128 18.6497 20.379Z" fill="#2F90DB" fill-opacity="0.8"/>
<path d="M9.22168 2.34858C9.22168 2.2394 9.22168 2.13023 9.22168 2.01774C9.68189 2.07993 9.98061 2.1291 10.3486 2.42095C10.545 2.67942 10.545 2.67942 10.545 3.01025C9.99212 2.91152 9.64112 2.72308 9.22168 2.34858Z" fill="white" fill-opacity="0.1"/>
<path d="M8.06348 1.68683C8.11806 1.57766 8.17265 1.46848 8.2289 1.356C8.50184 1.356 8.77478 1.356 9.05599 1.356C9.11058 1.51976 9.16516 1.68352 9.22141 1.85225C8.89064 1.85929 8.55966 1.859 8.2289 1.85225C8.17431 1.79766 8.11972 1.74307 8.06348 1.68683Z" fill="white" fill-opacity="0.1"/>
<path d="M2.60449 11.1157C2.65908 10.8974 2.71367 10.679 2.76991 10.454C2.98826 10.3995 3.20662 10.3449 3.43158 10.2886C3.26782 10.698 3.26782 10.698 3.10075 11.1157C2.93698 11.1157 2.77322 11.1157 2.60449 11.1157Z" fill="white" fill-opacity="0.1"/>
</svg>
