<svg width="42" height="46" viewBox="0 0 42 46" fill="none" xmlns="http://www.w3.org/2000/svg">
<path d="M38.6075 36.8883C38.0731 36.6969 37.5463 36.4845 37.0225 36.2658L36.4653 36.0459C35.8708 35.7713 35.4123 35.5199 34.928 35.0773C34.7145 34.4676 34.6518 33.9159 34.593 33.2735C34.3709 31.3822 33.4535 30.1612 32.0122 28.9925L32.3178 29.551L32.719 30.2935L33.1166 31.0253C33.6155 32.0305 33.9683 32.8154 33.909 33.9453L30.2436 31.8654L30.2012 32.672L30.762 32.9037C32.8602 33.9501 32.8602 33.9501 33.3147 34.9925L32.4197 35.0298C31.4499 35.1584 31.2244 35.2233 30.6215 35.8705C33.9106 36.8102 37.3501 37.1946 38.6075 36.8883Z" fill="#9DDC87"/>
<path d="M24.7898 4.16544C24.4501 3.20592 24.1056 2.38811 23.4763 1.58247C22.5852 1.06632 22.1225 0.912452 21.1077 1.12102C17.8746 3.20036 15.4699 7.4935 14.4384 11.1351L14.3215 11.6166C11.3514 10.0995 8.38074 9.0981 5.00973 9.2401C4.15727 9.61179 3.66587 10.0617 3.04286 10.7545C2.50819 13.3077 2.50819 13.3077 4.95695 18.2942C5.22395 18.8267 5.49013 19.3596 5.75554 19.8928L6.13953 20.6729C6.46108 21.315 6.73877 21.9088 6.93378 22.5997C7.03483 23.1317 7.03483 23.1317 6.61471 23.6162C5.56635 24.688 4.59327 25.7436 3.96961 27.115L3.76625 27.7783L3.2285 27.7501L3.20333 27.7906C1.76431 30.1066 0.0280937 32.9009 0.653764 35.7033C1.19151 35.7316 1.19151 35.7316 1.58079 35.386C2.02296 34.95 2.02296 34.95 2.56379 34.6821C3.85215 34.0783 5.11409 33.4381 6.30085 32.6507C7.01819 32.0335 7.1279 31.478 7.20969 30.5543C7.19647 29.4543 7.10249 29.1794 7.76844 28.2582C8.35124 27.7496 8.35124 27.7496 8.72 27.1455L8.94549 26.7023L9.48324 26.7306C8.23394 28.2012 7.79943 29.2967 7.89875 31.2308C9.51295 30.273 10.9633 30.0286 12.8232 29.8718L12.795 30.4096L12.0927 30.3053C10.4562 30.3404 10.4562 30.3404 8.097 32.5893C8.8148 32.8798 9.51588 33.1593 10.2056 33.5089C10.961 34.2058 10.961 34.2058 11.7624 34.6692C12.4786 34.5166 13.0862 34.2728 13.7518 33.9691L14.2387 33.7208L14.3676 34.6755C14.9205 38.4886 15.7981 42.3112 19.0512 44.7583C20.0196 45.0119 20.8774 45.045 21.7831 44.5606C24.1991 42.5838 25.691 37.8739 26.2476 34.9172L26.3381 34.3564C26.8891 34.6959 27.3937 34.9534 28.0108 35.1541L28.6466 35.3202L29.2906 35.491L29.777 35.6155C30.0564 35.7046 30.3384 35.7896 30.6215 35.8705C31.2244 35.2233 31.4499 35.1584 32.4197 35.0298L33.3147 34.9925C32.8602 33.9501 32.8602 33.9501 30.762 32.9037L30.2012 32.672L30.2436 31.8654L33.909 33.9453C33.9683 32.8154 33.6155 32.0305 33.1166 31.0253L32.719 30.2935L32.3178 29.551L32.0122 28.9925C33.4535 30.1612 34.3709 31.3822 34.593 33.2735C34.6518 33.9159 34.7145 34.4676 34.928 35.0773C35.4123 35.5199 35.8708 35.7713 36.4653 36.0459L37.0225 36.2658C37.5463 36.4845 38.0731 36.6969 38.6075 36.8883C39.3125 36.2271 39.4654 35.8966 39.5872 34.9176C39.5173 31.2014 36.585 27.3531 34.1273 24.7571C33.808 24.4271 33.4925 24.0932 33.1837 23.7534L32.8307 23.3567L32.3371 22.8084L32.8748 22.8367C35.7295 21.3216 39.1673 19.1365 40.2469 15.9443C40.3471 14.8467 40.3899 13.876 39.6947 12.9832L39.0721 12.6472C37.7665 11.851 36.7646 11.6189 35.2389 11.5959L34.5436 11.6004C32.3156 11.5411 30.2653 12.0549 28.1195 12.5953L27.1992 12.8323C27.2837 11.2245 27.2837 11.2245 25.7178 6.78871L25.4057 5.91344L25.0945 5.02241L24.7898 4.16544Z" fill="#9DDC87"/>
<path d="M15.5952 18.1543L15.8358 18.7062L15.4246 19.4766C14.7748 20.7193 14.5308 22.0921 14.5061 23.4894C15.6306 24.7387 17.492 24.5146 19.0646 24.6052L19.8746 24.6646C21.507 24.7589 22.8635 24.6408 24.4297 24.159C24.9922 24.0403 24.9922 24.0403 25.7847 24.3515C24.5834 25.7951 23.3723 26.6147 21.6811 27.4051C19.4078 28.4779 18.2756 29.4354 17.3858 31.864L17.1851 32.3853C16.5683 34.0123 16.2489 35.546 16.057 37.2708L15.9921 37.8335C15.9399 38.2879 15.8887 38.7425 15.8378 39.1971L15.3001 39.1689C14.8265 37.3628 14.4736 35.5731 14.2382 33.7208L13.7512 33.969C13.0857 34.2728 12.4781 34.5166 11.7618 34.6692C10.9605 34.2058 10.9605 34.2058 10.2051 33.5089C9.51534 33.1593 8.81426 32.8798 8.09646 32.5893C10.4556 30.3404 10.4556 30.3404 12.0922 30.3052L12.7945 30.4095L12.8227 29.8718C10.9628 30.0286 9.51241 30.273 7.89821 31.2308C7.79889 29.2967 8.23341 28.2011 9.4827 26.7305L8.94495 26.7023L8.71946 27.1454C8.3507 27.7495 8.3507 27.7495 7.7679 28.2582C7.10195 29.1794 7.19593 29.4543 7.20915 30.5543C7.12736 31.478 7.01765 32.0334 6.30031 32.6507C5.11355 33.438 3.85162 34.0783 2.56325 34.6821C2.02242 34.95 2.02242 34.95 1.58025 35.3859C1.19097 35.7315 1.19097 35.7315 0.653225 35.7033C0.0275547 32.9009 1.76377 30.1066 3.20279 27.7906L3.22796 27.7501C4.30772 25.9488 5.053 25.0431 6.60035 23.5786C7.02572 23.1321 7.02572 23.1321 6.98637 22.6057C6.77923 22.0424 6.53487 21.5342 6.26185 21.0005C5.78858 20.0657 5.78858 20.0657 5.81682 19.5279C6.39225 19.8432 6.89319 20.1467 7.39656 20.5714C8.59913 21.2403 9.73137 21.5041 11.1096 21.4237C12.8478 20.7085 14.2593 19.4519 15.5952 18.1543Z" fill="#79C45F"/>
<path d="M6.5832 30.6232C6.83795 30.9062 6.83795 30.9062 6.88174 31.5523C6.76733 32.2505 6.76733 32.2505 6.33893 32.6405C6.1467 32.7424 5.95447 32.8444 5.75641 32.9494C5.44265 33.1216 5.44265 33.1216 5.12255 33.2974C4.90155 33.4123 4.68055 33.5272 4.45286 33.6455C4.01989 33.8782 3.58738 34.1117 3.15538 34.3462C2.96227 34.4475 2.76916 34.5488 2.5702 34.6531C2.02715 34.9519 2.02715 34.9519 1.58055 35.3908C1.19209 35.7323 1.19209 35.7323 0.654341 35.704C0.351814 34.0624 0.502269 32.5895 1.43221 31.1614C2.91314 30.2322 4.91199 30.3615 6.5832 30.6232Z" fill="#9DDC87"/>
<path d="M6.5832 30.6232C6.83795 30.9062 6.83795 30.9062 6.88174 31.5523C6.76733 32.2505 6.76733 32.2505 6.33893 32.6405L5.75641 32.9494L5.12255 33.2974L4.45286 33.6455C4.01989 33.8782 3.58738 34.1117 3.15538 34.3462L2.5702 34.6531C2.02715 34.9519 2.02715 34.9519 1.58055 35.3908C1.19209 35.7323 1.19209 35.7323 0.654341 35.704C0.654341 35.704 1.01212 37.1992 1.77952 37.3808C3.24421 37.7274 4.73479 37.5533 6.58355 37.2287C9.81288 36.6619 14.2364 33.7761 14.2364 33.7761L13.5311 26.6742L8.30919 25.9955L1.43221 31.1614C2.91314 30.2322 4.91199 30.3615 6.5832 30.6232Z" fill="#9DDC87"/>
<path d="M36.6946 16.8368C36.8721 16.8461 37.0496 16.8554 37.2324 16.865C37.092 17.6078 36.9866 18.0891 36.4808 18.6623C36.0439 18.9595 36.0439 18.9595 35.5061 18.9313C35.7138 18.041 36.0501 17.4866 36.6946 16.8368Z" fill="#B9FFA0"/>
<path d="M37.8701 15.0111C38.0428 15.1092 38.2156 15.2073 38.3937 15.3083C38.3704 15.7519 38.3471 16.1956 38.3231 16.6526C38.0522 16.7274 37.7814 16.8021 37.5023 16.8791C37.5191 16.3409 37.5478 15.803 37.5871 15.2659C37.6804 15.1818 37.7738 15.0978 37.8701 15.0111Z" fill="#B9FFA0"/>
<path d="M23.0088 5.33301C23.359 5.44038 23.7093 5.54775 24.0702 5.65838C24.1402 6.01796 24.2103 6.37753 24.2825 6.748C23.6311 6.44686 23.6311 6.44686 22.9664 6.13963C22.9804 5.87345 22.9944 5.60726 23.0088 5.33301Z" fill="#B9FFA0"/>
</svg>
