<svg width="24" height="27" viewBox="0 0 24 27" fill="none" xmlns="http://www.w3.org/2000/svg">
<path d="M23.4623 21.4578C23.1283 21.3576 22.7982 21.2442 22.4698 21.127L22.1209 21.01C21.7472 20.8607 21.4579 20.7212 21.1464 20.4653C20.9958 20.0981 20.9396 19.7617 20.8828 19.3694C20.6856 18.2162 20.0834 17.4966 19.1614 16.8261L19.3669 17.1588L19.637 17.6015L19.9045 18.0376C20.243 18.6383 20.4848 19.1085 20.4848 19.8036L18.1689 18.6457V19.1419L18.5204 19.266C19.8415 19.8404 19.8415 19.8404 20.1539 20.4653L19.606 20.517C19.0151 20.6271 18.8789 20.6743 18.5299 21.0907C20.5781 21.5613 22.7008 21.6863 23.4623 21.4578Z" fill="#A9B957" fill-opacity="0.8"/>
<path d="M13.9301 1.82662C13.6907 1.24888 13.453 0.758229 13.0409 0.284225C12.4776 -0.00372703 12.1888 -0.0832212 11.5729 0.0774515C9.65626 1.4574 8.31926 4.16888 7.80376 6.43637L7.74755 6.73555C5.87644 5.90048 4.02155 5.38184 1.9579 5.57762C1.44687 5.83313 1.15988 6.12498 0.799973 6.57013C0.554228 8.15381 0.554228 8.15381 2.21734 11.1343C2.39831 11.4524 2.5788 11.7707 2.75882 12.0894L3.01955 12.5556C3.23753 12.9392 3.42704 13.2945 3.56896 13.7122C3.6481 14.0353 3.6481 14.0353 3.40596 14.3461C2.7973 15.0374 2.23431 15.7165 1.89587 16.5779L1.79248 16.9915H1.46165L1.44751 17.0172C0.639271 18.4845 -0.335892 20.2549 0.138299 21.954C0.469136 21.954 0.469136 21.954 0.696828 21.7295C0.954067 21.4478 0.954067 21.4478 1.27725 21.2659C2.04824 20.854 2.80184 20.4205 3.50458 19.8992C3.9248 19.4973 3.97421 19.153 3.99462 18.5836C3.95105 17.9092 3.88453 17.7436 4.26342 17.1569C4.6046 16.8261 4.6046 16.8261 4.81137 16.4435L4.93543 16.1644H5.26627C4.54719 17.1069 4.31591 17.7931 4.43918 18.9765C5.39868 18.3368 6.28064 18.1401 7.41671 17.984V18.3148L6.98249 18.2735C5.97955 18.3478 5.97955 18.3478 4.6046 19.8036C5.05436 19.9587 5.4935 20.1076 5.92795 20.2999C6.41386 20.7031 6.41386 20.7031 6.92046 20.9615C7.35498 20.8449 7.7199 20.6757 8.11845 20.4679L8.40922 20.2999L8.51907 20.8814C8.98116 23.2031 9.64278 25.5201 11.7176 26.9166C12.3199 27.041 12.8473 27.0337 13.3873 26.7072C14.8059 25.4165 15.5694 22.4788 15.8156 20.6469L15.8531 20.2999C16.202 20.4904 16.52 20.6321 16.905 20.7354L17.3005 20.8168L17.7011 20.9008L18.0035 20.9615C18.1778 21.0072 18.3536 21.0502 18.5299 21.0907C18.8789 20.6743 19.0151 20.6271 19.606 20.517L20.1539 20.4653C19.8415 19.8404 19.8415 19.8404 18.5204 19.266L18.1689 19.1419V18.6457L20.4848 19.8036C20.4848 19.1085 20.243 18.6383 19.9045 18.0376L19.637 17.6015L19.3669 17.1588L19.1614 16.8261C20.0834 17.4966 20.6856 18.2162 20.8828 19.3694C20.9396 19.7617 20.9958 20.0981 21.1464 20.4653C21.4579 20.7212 21.7472 20.8607 22.1209 21.01L22.4698 21.127C22.7982 21.2442 23.1283 21.3576 23.4623 21.4578C23.8736 21.0294 23.9567 20.8217 23.9999 20.2172C23.8372 17.9394 21.9141 15.6729 20.3226 14.1593C20.116 13.9672 19.9117 13.7725 19.7113 13.5739L19.4819 13.3419L19.1614 13.0214H19.4923C21.1949 11.9999 23.2336 10.5484 23.7931 8.55515C23.8192 7.87848 23.8142 7.28154 23.3589 6.75622L22.966 6.57013C22.1394 6.12375 21.5172 6.01361 20.5804 6.04867L20.1539 6.07387C18.7851 6.10927 17.5438 6.49058 16.2446 6.89127L15.6876 7.06638C15.6876 6.07721 15.6876 6.07721 14.584 3.40618L14.3643 2.87923L14.1446 2.34259L13.9301 1.82662Z" fill="#A9B957" fill-opacity="0.8"/>
<path d="M8.74006 10.7056L8.90548 11.0364L8.67803 11.5223C8.31939 12.3057 8.21392 13.1559 8.2438 14.0139C8.97402 14.7441 10.1088 14.5466 11.0766 14.5515L11.5754 14.5619C12.58 14.5671 13.4085 14.451 14.3539 14.1049C14.6951 14.0139 14.6951 14.0139 15.1914 14.1794C14.5009 15.1037 13.7842 15.6456 12.7721 16.1851C11.412 16.9166 10.7482 17.5405 10.2805 19.0592L10.1742 19.3855C9.84823 20.4036 9.70165 21.3549 9.63952 22.4193L9.61787 22.7666C9.60046 23.0471 9.58374 23.3276 9.56715 23.6082H9.23631C8.88755 22.5154 8.61338 21.4287 8.40922 20.2998L8.11845 20.4678C7.7199 20.6757 7.35497 20.8448 6.92046 20.9615C6.41386 20.703 6.41386 20.703 5.92794 20.2998C5.4935 20.1075 5.05436 19.9587 4.6046 19.8036C5.97955 18.3478 5.97955 18.3478 6.98249 18.2735L7.41671 18.3148V17.984C6.28064 18.1401 5.39867 18.3368 4.43918 18.9765C4.31591 17.7931 4.54719 17.1069 5.26627 16.1644H4.93543L4.81137 16.4435C4.6046 16.8261 4.6046 16.8261 4.26342 17.1569C3.88453 17.7436 3.95105 17.9092 3.99462 18.5836C3.97421 19.153 3.9248 19.4973 3.50458 19.8991C2.80184 20.4205 2.04824 20.8539 1.27725 21.2659C0.954067 21.4477 0.954067 21.4477 0.696828 21.7294C0.469136 21.954 0.469136 21.954 0.138299 21.954C-0.335892 20.2548 0.639271 18.4845 1.44751 17.0171L1.46165 16.9915C2.06606 15.8516 2.49412 15.2718 3.39627 14.3234C3.64285 14.0358 3.64285 14.0358 3.60175 13.7141C3.4565 13.3752 3.2902 13.0712 3.10549 12.7526C2.78499 12.1943 2.78499 12.1943 2.78499 11.8635C3.1482 12.0384 3.46532 12.2085 3.78784 12.4528C4.54722 12.8244 5.25039 12.9498 6.09336 12.856C7.13676 12.3612 7.9623 11.5447 8.74006 10.7056Z" fill="#A9B957"/>
<path d="M3.61224 18.6458C3.77765 18.8112 3.77765 18.8112 3.82535 19.2063C3.77765 19.6383 3.77765 19.6383 3.52739 19.8914C3.41273 19.9601 3.29808 20.0289 3.17995 20.0997C2.993 20.2155 2.993 20.2155 2.80227 20.3336C2.67038 20.4112 2.53849 20.4888 2.40261 20.5688C2.14447 20.7255 1.88664 20.8827 1.62915 21.0405C1.51394 21.1089 1.39872 21.1772 1.28002 21.2477C0.956469 21.4485 0.956469 21.4485 0.696613 21.7322C0.469284 21.9542 0.469284 21.9542 0.138447 21.9542C-0.100074 20.9567 -0.0552379 20.0482 0.469284 19.1421C1.34794 18.5242 2.57846 18.5392 3.61224 18.6458Z" fill="#A9B957" fill-opacity="0.8"/>
<path d="M3.61224 18.6458C3.77765 18.8112 3.77765 18.8112 3.82535 19.2063C3.77765 19.6383 3.77765 19.6383 3.52739 19.8914L3.17995 20.0997L2.80227 20.3336L2.40261 20.5688C2.14447 20.7255 1.88664 20.8827 1.62915 21.0405L1.28002 21.2477C0.956469 21.4485 0.956469 21.4485 0.696613 21.7322C0.469284 21.9542 0.469284 21.9542 0.138447 21.9542C0.138447 21.9542 0.406147 22.86 0.882824 22.9467C1.79263 23.1121 2.70154 22.9573 3.82535 22.6986C5.78838 22.2467 8.40937 20.3336 8.40937 20.3336L7.74769 15.9991L4.52203 15.751L0.469284 19.1421C1.34794 18.5242 2.57846 18.5392 3.61224 18.6458Z" fill="#A9B957" fill-opacity="0.8"/>
<path d="M21.6431 9.2168C21.7523 9.2168 21.8615 9.2168 21.974 9.2168C21.9118 9.67701 21.8626 9.97572 21.5707 10.3437C21.3123 10.5401 21.3123 10.5401 20.9814 10.5401C21.0802 9.98723 21.2686 9.63624 21.6431 9.2168Z" fill="white" fill-opacity="0.1"/>
<path d="M22.3044 8.05908C22.4136 8.11367 22.5227 8.16826 22.6352 8.2245C22.6352 8.49744 22.6352 8.77038 22.6352 9.05159C22.4715 9.10618 22.3077 9.16077 22.139 9.21701C22.1319 8.88625 22.1322 8.55527 22.139 8.2245C22.1935 8.16991 22.2481 8.11532 22.3044 8.05908Z" fill="white" fill-opacity="0.1"/>
<path d="M12.875 2.6001C13.0934 2.65469 13.3117 2.70927 13.5367 2.76552C13.5913 2.98387 13.6459 3.20222 13.7021 3.42719C13.2927 3.26343 13.2927 3.26343 12.875 3.09635C12.875 2.93259 12.875 2.76882 12.875 2.6001Z" fill="white" fill-opacity="0.1"/>
</svg>
