<svg width="61" height="60" viewBox="0 0 61 60" fill="none" xmlns="http://www.w3.org/2000/svg">
<path d="M31.9112 6.50783C32.0548 7.08434 32.1757 7.66647 32.2894 8.24961L32.4214 8.86251C32.5274 9.53972 32.5747 10.0849 32.4705 10.7637C32.0635 11.3037 31.6194 11.6785 31.094 12.1028C29.5759 13.3943 29.0452 14.9022 28.8643 16.8359L29.1732 16.2456L29.5869 15.465L29.9934 14.6939C30.5791 13.6758 31.0578 12.9128 32.0763 12.3084L32.3932 16.7081L33.1202 16.2767L32.9964 15.6538C32.6894 13.219 32.6894 13.219 33.3333 12.2179L33.8855 12.9757C34.5605 13.7457 34.748 13.9043 35.6616 14.0536C34.5703 10.6436 32.908 7.42494 31.9112 6.50783Z" fill="#FE9E9E"/>
<path d="M11.4364 37.5409C10.798 38.3939 10.2859 39.1687 9.94961 40.1845C10.0175 41.2603 10.1521 41.7525 10.923 42.5152C14.6111 44.1235 19.7461 43.7251 23.5164 42.509L24.0036 42.3313C24.4069 45.7987 25.2596 48.9672 27.3406 51.8205C28.1592 52.3471 28.8363 52.5138 29.8014 52.6541C32.3354 51.6373 32.3354 51.6373 35.2563 46.6094C35.5649 46.0678 35.8745 45.5265 36.1847 44.9858L36.6411 44.1985C37.0137 43.5456 37.3695 42.959 37.858 42.388C38.2626 41.9911 38.2626 41.9911 38.9285 42.0757C40.4706 42.3664 41.9549 42.6009 43.5113 42.3478L44.2071 42.1397L44.4947 42.6244L44.5446 42.6228C47.3971 42.5313 50.8387 42.4209 52.916 40.2489C52.6284 39.7642 52.6284 39.7642 52.1014 39.6258C51.465 39.4939 51.465 39.4939 50.9176 39.1785C49.6437 38.407 48.3535 37.6798 46.9787 37.1034C46.0247 36.8371 45.4772 37.064 44.6253 37.5291C43.675 38.1793 43.4902 38.4208 42.3012 38.3757C41.5199 38.1634 41.5199 38.1634 40.7797 38.1931L40.2629 38.254L39.9752 37.7693C41.9813 38.0034 43.1877 37.7457 44.8144 36.5362C43.043 35.6866 41.988 34.5654 40.7716 33.0367L41.2563 32.749L41.5732 33.4212C42.554 34.826 42.554 34.826 45.8824 35.5748C45.7186 34.781 45.5549 34.0082 45.4589 33.2045C45.6272 32.142 45.6272 32.142 45.5655 31.1751C45.0168 30.6399 44.4516 30.2523 43.8007 29.8491L43.3017 29.5691L44.0583 28.9026C47.058 26.2071 49.8776 23.2234 50.1198 18.9694C49.7784 17.9788 49.3092 17.2125 48.3614 16.7051C45.2371 15.7488 40.2691 17.1843 37.3711 18.4162L36.8301 18.663C36.8058 17.9861 36.7371 17.397 36.5536 16.7431L36.3291 16.093L36.1039 15.433L35.93 14.9371C35.8453 14.6421 35.7556 14.3471 35.6616 14.0536C34.748 13.9043 34.5605 13.7457 33.8855 12.9757L33.3333 12.2179C32.6894 13.219 32.6894 13.219 32.9964 15.6538L33.1202 16.2767L32.3932 16.7081L32.0763 12.3084C31.0578 12.9128 30.5791 13.6758 29.9934 14.6939L29.5869 15.465L29.1732 16.2456L28.8643 16.8359C29.0452 14.9022 29.5759 13.3943 31.094 12.1028C31.6194 11.6785 32.0635 11.3037 32.4705 10.7637C32.5747 10.0849 32.5274 9.53972 32.4214 8.86251L32.2894 8.24961C32.1757 7.66647 32.0548 7.08434 31.9112 6.50783C30.926 6.27773 30.5494 6.33644 29.6261 6.79877C26.4304 9.01741 24.7815 13.8055 23.9478 17.4531C23.8458 17.9228 23.7381 18.3914 23.6215 18.8577L23.481 19.3954L23.2901 20.1436L23.0025 19.6589C20.0255 18.0525 16.1265 16.3274 12.7196 17.2406C11.7056 17.7907 10.8354 18.317 10.4615 19.4407L10.5304 20.1781C10.5951 21.7773 10.9747 22.7847 11.8405 24.1267L12.2482 24.7296C13.4901 26.7044 15.128 28.1916 16.8445 29.7466L17.5853 30.4104C16.136 31.2704 16.136 31.2704 13.1821 35.2096L12.6011 35.9896L12.0059 36.778L11.4364 37.5409Z" fill="#FE9E9E"/>
<path d="M28.9583 37.4257L29.2992 36.8957L30.2089 36.8065C31.6684 36.6509 33.0057 36.0663 34.2369 35.2765C34.6719 33.5718 33.3959 32.0809 32.5617 30.6587L32.1432 29.9189C31.2775 28.4425 30.3871 27.3297 29.0581 26.2455C28.6282 25.8246 28.6282 25.8246 28.4391 24.9537C30.3937 25.1617 31.8107 25.7405 33.4809 26.7544C35.7352 28.1113 37.2264 28.5414 39.8581 27.9062L40.4286 27.7782C42.2036 27.3707 43.7248 26.7584 45.3383 25.9241L45.866 25.6539C46.2921 25.4355 46.7177 25.2161 47.1432 24.9965L47.4308 25.4812C46.1329 26.9423 44.7791 28.2887 43.3027 29.5693L43.8016 29.8492C44.4526 30.2525 45.0177 30.64 45.5664 31.1752C45.6282 32.1422 45.6282 32.1422 45.4599 33.2046C45.5558 34.0083 45.7195 34.7812 45.8833 35.5749C42.555 34.8262 42.555 34.8262 41.5742 33.4213L41.2573 32.7492L40.7725 33.0368C41.989 34.5655 43.044 35.6867 44.8153 36.5364C43.1887 37.7458 41.9822 38.0035 39.9762 37.7694L40.2638 38.2541L40.7806 38.1932C41.5209 38.1636 41.5209 38.1636 42.3022 38.3758C43.4911 38.4209 43.676 38.1794 44.6262 37.5293C45.4782 37.0641 46.0256 36.8372 46.9797 37.1035C48.3544 37.6799 49.6447 38.4071 50.9186 39.1786C51.4659 39.494 51.4659 39.494 52.1023 39.626C52.6293 39.7643 52.6293 39.7643 52.9169 40.249C50.8397 42.421 47.3981 42.5315 44.5456 42.623L44.4957 42.6246C42.3001 42.7301 41.0786 42.6069 38.9048 42.1097C38.2689 41.9985 38.2689 41.9985 37.8334 42.3384C37.4631 42.8458 37.1623 43.3537 36.8561 43.9014C36.3168 44.8563 36.3168 44.8563 35.8321 45.1439C35.7725 44.4597 35.746 43.8472 35.8236 43.1623C35.7079 41.7266 35.2802 40.5874 34.4099 39.4339C32.7779 38.3353 30.8639 37.8357 28.9583 37.4257Z" fill="#F78686"/>
<path d="M46.2421 33.1088C46.1998 32.9083 46.1575 32.7079 46.114 32.5013C46.0108 32.0116 45.9093 31.5216 45.8082 31.0315C45.8882 30.984 45.9681 30.9366 46.0505 30.8877C46.2529 31.092 46.4553 31.2963 46.6638 31.5069C47.2584 32.0693 47.862 32.5289 48.5537 32.966C48.7337 33.0801 48.9138 33.1942 49.0993 33.3117C49.4745 33.5441 49.8532 33.7709 50.2352 33.992C52.0047 35.0995 52.8442 36.5898 53.7952 38.4168C53.5702 38.7666 53.3452 39.1164 53.1134 39.4768C49.0191 38.3057 47.111 37.3407 46.2421 33.1088Z" fill="#F99F9F"/>
<path d="M45.0491 38.0356C45.1476 37.6494 45.1476 37.6494 45.685 37.2361C46.3594 36.9304 46.3594 36.9304 46.9478 37.077C47.1482 37.1853 47.3486 37.2935 47.555 37.405C47.8872 37.5782 47.8872 37.5782 48.2261 37.755C48.4545 37.8807 48.6828 38.0065 48.9181 38.136C49.3722 38.378 49.8267 38.6191 50.2817 38.8591C50.482 38.9685 50.6824 39.0779 50.8888 39.1905C51.4643 39.49 51.4643 39.49 52.1058 39.6241C52.6287 39.7641 52.6287 39.7641 52.9163 40.2489C51.6623 41.4655 50.2922 42.1897 48.5086 42.209C46.8395 41.4588 45.7916 39.6429 45.0491 38.0356Z" fill="#FE9E9E"/>
<path d="M45.0491 38.0356C45.1476 37.6494 45.1476 37.6494 45.685 37.2361C46.3594 36.9304 46.3594 36.9304 46.9478 37.077L47.555 37.405L48.2261 37.755L48.9181 38.136C49.3722 38.378 49.8267 38.6191 50.2817 38.8591L50.8888 39.1905C51.4643 39.49 51.4643 39.49 52.1058 39.6241C52.6287 39.7641 52.6287 39.7641 52.9163 40.2489C52.9163 40.2489 54.0107 39.0691 53.7233 38.2954C53.1747 36.8186 52.1576 35.6216 50.8016 34.2C48.4328 31.7168 43.3513 29.5399 43.3513 29.5399L37.576 34.2777L40.0168 39.2194L48.5086 42.209C46.8395 41.4588 45.7916 39.6429 45.0491 38.0356Z" fill="#FE9E9E"/>
<path d="M15.5585 19.8157C15.4636 19.6558 15.3687 19.4958 15.2709 19.331C15.9992 19.022 16.4796 18.8344 17.2725 18.942C17.785 19.1499 17.785 19.1499 18.0727 19.6346C17.1767 19.9707 16.4987 19.9998 15.5585 19.8157Z" fill="#FFA9A9"/>
<path d="M13.2872 19.8536C13.2723 19.6462 13.2574 19.4388 13.242 19.2251C13.6419 18.9878 14.0418 18.7505 14.4538 18.506C14.6761 18.6985 14.8985 18.8909 15.1276 19.0892C14.6491 19.3871 14.1639 19.6744 13.6734 19.9521C13.546 19.9196 13.4185 19.8871 13.2872 19.8536Z" fill="#FFABAB"/>
<path d="M13.4863 38.4136C13.3765 38.0462 13.2666 37.6788 13.1534 37.3003C13.4259 37.0305 13.6983 36.7607 13.9791 36.4827C14.0951 37.2249 14.0951 37.2249 14.2134 37.9821C13.9735 38.1245 13.7335 38.2669 13.4863 38.4136Z" fill="#FFABAB"/>
</svg>
