<svg width="24" height="27" viewBox="0 0 24 27" fill="none" xmlns="http://www.w3.org/2000/svg">
<path d="M23.4623 21.4622C23.1283 21.362 22.7982 21.2486 22.4698 21.1313L22.1209 21.0144C21.7472 20.8651 21.4579 20.7256 21.1464 20.4697C20.9958 20.1025 20.9396 19.7661 20.8828 19.3738C20.6856 18.2206 20.0834 17.501 19.1614 16.8305L19.3669 17.1632L19.637 17.6059L19.9045 18.042C20.243 18.6427 20.4848 19.1129 20.4848 19.808L18.1689 18.6501V19.1463L18.5204 19.2704C19.8415 19.8448 19.8415 19.8448 20.1539 20.4697L19.606 20.5214C19.0151 20.6315 18.8789 20.6787 18.5299 21.0951C20.5781 21.5657 22.7008 21.6907 23.4623 21.4622Z" fill="#E7C7AE"/>
<path d="M13.9301 1.83102C13.6907 1.25327 13.453 0.762624 13.0409 0.288619C12.4776 0.000667502 12.1888 -0.0788267 11.5729 0.0818461C9.65626 1.46179 8.31926 4.17328 7.80376 6.44076L7.74755 6.73994C5.87644 5.90488 4.02155 5.38624 1.9579 5.58201C1.44687 5.83753 1.15988 6.12937 0.799973 6.57452C0.554228 8.15821 0.554228 8.15821 2.21734 11.1387C2.39831 11.4568 2.5788 11.7751 2.75882 12.0937L3.01955 12.56C3.23753 12.9436 3.42704 13.2989 3.56896 13.7166C3.6481 14.0397 3.6481 14.0397 3.40596 14.3505C2.7973 15.0418 2.23431 15.7209 1.89587 16.5823L1.79248 16.9959H1.46165L1.44751 17.0216C0.639271 18.4889 -0.335892 20.2593 0.138299 21.9584C0.469136 21.9584 0.469136 21.9584 0.696828 21.7339C0.954067 21.4521 0.954067 21.4521 1.27725 21.2703C2.04824 20.8584 2.80184 20.4249 3.50458 19.9036C3.9248 19.5017 3.97421 19.1574 3.99462 18.588C3.95105 17.9136 3.88453 17.748 4.26342 17.1613C4.6046 16.8305 4.6046 16.8305 4.81137 16.4479L4.93543 16.1688H5.26627C4.54719 17.1113 4.31591 17.7975 4.43918 18.9809C5.39868 18.3412 6.28064 18.1445 7.41671 17.9884V18.3192L6.98249 18.2779C5.97955 18.3522 5.97955 18.3522 4.6046 19.808C5.05436 19.9631 5.4935 20.112 5.92795 20.3043C6.41386 20.7075 6.41386 20.7075 6.92046 20.9659C7.35498 20.8492 7.7199 20.6801 8.11845 20.4723L8.40922 20.3043L8.51907 20.8858C8.98116 23.2075 9.64278 25.5245 11.7176 26.921C12.3199 27.0454 12.8473 27.0381 13.3873 26.7116C14.8059 25.4209 15.5694 22.4832 15.8156 20.6512L15.8531 20.3043C16.202 20.4948 16.52 20.6365 16.905 20.7398L17.3005 20.8212L17.7011 20.9052L18.0035 20.9659C18.1778 21.0116 18.3536 21.0546 18.5299 21.0951C18.8789 20.6787 19.0151 20.6315 19.606 20.5214L20.1539 20.4697C19.8415 19.8448 19.8415 19.8448 18.5204 19.2704L18.1689 19.1463V18.6501L20.4848 19.808C20.4848 19.1129 20.243 18.6427 19.9045 18.042L19.637 17.6059L19.3669 17.1632L19.1614 16.8305C20.0834 17.501 20.6856 18.2206 20.8828 19.3738C20.9396 19.7661 20.9958 20.1025 21.1464 20.4697C21.4579 20.7256 21.7472 20.8651 22.1209 21.0144L22.4698 21.1313C22.7982 21.2486 23.1283 21.362 23.4623 21.4622C23.8736 21.0338 23.9567 20.8261 23.9999 20.2215C23.8372 17.9438 21.9141 15.6772 20.3226 14.1637C20.116 13.9716 19.9117 13.7769 19.7113 13.5783L19.4819 13.3463L19.1614 13.0258H19.4923C21.1949 12.0043 23.2336 10.5528 23.7931 8.55954C23.8192 7.88288 23.8142 7.28593 23.3589 6.76062L22.966 6.57452C22.1394 6.12814 21.5172 6.01801 20.5804 6.05307L20.1539 6.07827C18.7851 6.11367 17.5438 6.49498 16.2446 6.89567L15.6876 7.07078C15.6876 6.08161 15.6876 6.08161 14.584 3.41057L14.3643 2.88362L14.1446 2.34698L13.9301 1.83102Z" fill="#E7C7AE"/>
<path d="M8.74006 10.71L8.90548 11.0408L8.67803 11.5267C8.31939 12.3101 8.21392 13.1603 8.2438 14.0183C8.97402 14.7485 10.1088 14.551 11.0766 14.5559L11.5754 14.5663C12.58 14.5715 13.4085 14.4553 14.3539 14.1093C14.6951 14.0183 14.6951 14.0183 15.1914 14.1837C14.5009 15.1081 13.7842 15.65 12.7721 16.1894C11.412 16.921 10.7482 17.5449 10.2805 19.0636L10.1742 19.3899C9.84823 20.408 9.70165 21.3593 9.63952 22.4237L9.61787 22.771C9.60046 23.0515 9.58374 23.332 9.56715 23.6126H9.23631C8.88755 22.5198 8.61338 21.4331 8.40922 20.3042L8.11845 20.4722C7.7199 20.6801 7.35497 20.8492 6.92046 20.9659C6.41386 20.7074 6.41386 20.7074 5.92794 20.3042C5.4935 20.1119 5.05436 19.9631 4.6046 19.808C5.97955 18.3521 5.97955 18.3521 6.98249 18.2779L7.41671 18.3192V17.9884C6.28064 18.1445 5.39867 18.3412 4.43918 18.9809C4.31591 17.7975 4.54719 17.1113 5.26627 16.1688H4.93543L4.81137 16.4479C4.6046 16.8304 4.6046 16.8304 4.26342 17.1613C3.88453 17.748 3.95105 17.9136 3.99462 18.588C3.97421 19.1574 3.9248 19.5017 3.50458 19.9035C2.80184 20.4249 2.04824 20.8583 1.27725 21.2703C0.954067 21.4521 0.954067 21.4521 0.696828 21.7338C0.469136 21.9584 0.469136 21.9584 0.138299 21.9584C-0.335892 20.2592 0.639271 18.4889 1.44751 17.0215L1.46165 16.9959C2.06606 15.8559 2.49412 15.2762 3.39627 14.3278C3.64285 14.0402 3.64285 14.0402 3.60175 13.7185C3.4565 13.3796 3.2902 13.0756 3.10549 12.757C2.78499 12.1987 2.78499 12.1987 2.78499 11.8679C3.1482 12.0428 3.46532 12.2129 3.78784 12.4572C4.54722 12.8288 5.25039 12.9542 6.09336 12.8604C7.13676 12.3656 7.9623 11.5491 8.74006 10.71Z" fill="#EBAB78"/>
<path d="M3.61224 18.6502C3.77765 18.8156 3.77765 18.8156 3.82535 19.2107C3.77765 19.6427 3.77765 19.6427 3.52739 19.8958C3.41273 19.9645 3.29808 20.0333 3.17995 20.1041C2.993 20.2199 2.993 20.2199 2.80227 20.338C2.67038 20.4156 2.53849 20.4932 2.40261 20.5732C2.14447 20.7299 1.88664 20.8871 1.62915 21.0449C1.51394 21.1133 1.39872 21.1816 1.28002 21.2521C0.956469 21.4529 0.956469 21.4529 0.696613 21.7365C0.469284 21.9586 0.469284 21.9586 0.138447 21.9586C-0.100074 20.9611 -0.0552379 20.0526 0.469284 19.1465C1.34794 18.5286 2.57846 18.5436 3.61224 18.6502Z" fill="#E7C7AE"/>
<path d="M3.61224 18.6502C3.77765 18.8156 3.77765 18.8156 3.82535 19.2107C3.77765 19.6427 3.77765 19.6427 3.52739 19.8958L3.17995 20.1041L2.80227 20.338L2.40261 20.5732C2.14447 20.7299 1.88664 20.8871 1.62915 21.0449L1.28002 21.2521C0.956469 21.4529 0.956469 21.4529 0.696613 21.7365C0.469284 21.9586 0.469284 21.9586 0.138447 21.9586C0.138447 21.9586 0.406147 22.8644 0.882824 22.9511C1.79263 23.1165 2.70154 22.9617 3.82535 22.7029C5.78838 22.2511 8.40937 20.338 8.40937 20.338L7.74769 16.0035L4.52203 15.7554L0.469284 19.1465C1.34794 18.5286 2.57846 18.5436 3.61224 18.6502Z" fill="#E7C7AE"/>
<path d="M21.6431 9.22119C21.7523 9.22119 21.8615 9.22119 21.974 9.22119C21.9118 9.68141 21.8626 9.98012 21.5707 10.3481C21.3123 10.5445 21.3123 10.5445 20.9814 10.5445C21.0802 9.99163 21.2686 9.64063 21.6431 9.22119Z" fill="#FFECDD"/>
<path d="M22.3044 8.06348C22.4136 8.11806 22.5227 8.17265 22.6352 8.2289C22.6352 8.50184 22.6352 8.77478 22.6352 9.05599C22.4715 9.11058 22.3077 9.16516 22.139 9.22141C22.1319 8.89064 22.1322 8.55966 22.139 8.2289C22.1935 8.17431 22.2481 8.11972 22.3044 8.06348Z" fill="#FFECDD"/>
<path d="M12.875 2.60449C13.0934 2.65908 13.3117 2.71367 13.5367 2.76991C13.5913 2.98826 13.6459 3.20662 13.7021 3.43158C13.2927 3.26782 13.2927 3.26782 12.875 3.10075C12.875 2.93698 12.875 2.77322 12.875 2.60449Z" fill="#FFECDD"/>
</svg>
