<svg width="27" height="24" viewBox="0 0 27 24" fill="none" xmlns="http://www.w3.org/2000/svg">
<path d="M21.4622 0.533302C21.362 0.867327 21.2486 1.1974 21.1313 1.52581L21.0144 1.87474C20.8651 2.24836 20.7256 2.53772 20.4697 2.84916C20.1025 2.9998 19.7661 3.05602 19.3738 3.1128C18.2206 3.31005 17.501 3.91221 16.8305 4.83418L17.1632 4.6287L17.6059 4.3586L18.042 4.09109C18.6427 3.75263 19.1129 3.51083 19.808 3.51083L18.6501 5.82669H19.1463L19.2704 5.47518C19.8448 4.15413 19.8448 4.15413 20.4697 3.84167L20.5214 4.38962C20.6315 4.98047 20.6787 5.11672 21.0951 5.46573C21.5657 3.4175 21.6907 1.29484 21.4622 0.533302Z" fill="#EF4042" fill-opacity="0.8"/>
<path d="M1.83102 10.0655C1.25327 10.3049 0.762624 10.5426 0.288619 10.9547C0.000667502 11.518 -0.0788267 11.8068 0.0818461 12.4228C1.46179 14.3393 4.17328 15.6763 6.44076 16.1918L6.73994 16.2481C5.90488 18.1192 5.38624 19.9741 5.58201 22.0377C5.83753 22.5487 6.12937 22.8357 6.57452 23.1956C8.15821 23.4414 8.15821 23.4414 11.1387 21.7783C11.4568 21.5973 11.7751 21.4168 12.0937 21.2368L12.56 20.9761C12.9436 20.7581 13.2989 20.5686 13.7166 20.4267C14.0397 20.3475 14.0397 20.3475 14.3505 20.5896C15.0418 21.1983 15.7209 21.7613 16.5823 22.0997L16.9959 22.2031V22.534L17.0216 22.5481C18.4889 23.3563 20.2593 24.3315 21.9584 23.8573C21.9584 23.5265 21.9584 23.5265 21.7339 23.2988C21.4521 23.0415 21.4521 23.0415 21.2703 22.7184C20.8584 21.9474 20.4249 21.1938 19.9036 20.491C19.5017 20.0708 19.1574 20.0214 18.588 20.001C17.9136 20.0446 17.748 20.1111 17.1613 19.7322C16.8305 19.391 16.8305 19.391 16.4479 19.1842L16.1688 19.0602V18.7293C17.1113 19.4484 17.7975 19.6797 18.9809 19.5564C18.3412 18.5969 18.1445 17.715 17.9884 16.5789H18.3192L18.2779 17.0131C18.3522 18.0161 18.3522 18.0161 19.808 19.391C19.9631 18.9412 20.112 18.5021 20.3043 18.0677C20.7075 17.5817 20.7075 17.5817 20.9659 17.0751C20.8492 16.6406 20.6801 16.2757 20.4723 15.8772L20.3043 15.5864L20.8858 15.4765C23.2075 15.0144 25.5245 14.3528 26.921 12.278C27.0454 11.6757 27.0381 11.1483 26.7116 10.6083C25.4209 9.18972 22.4832 8.42622 20.6512 8.18003L20.3043 8.14255C20.4948 7.79357 20.6365 7.47564 20.7398 7.09059L20.8212 6.69514L20.9052 6.29452L20.9659 5.99211C21.0116 5.81781 21.0546 5.64205 21.0951 5.46573C20.6787 5.11672 20.6315 4.98047 20.5214 4.38962L20.4697 3.84167C19.8448 4.15413 19.8448 4.15413 19.2704 5.47518L19.1463 5.82669H18.6501L19.808 3.51083C19.1129 3.51083 18.6427 3.75263 18.042 4.09109L17.6059 4.3586L17.1632 4.6287L16.8305 4.83418C17.501 3.91221 18.2206 3.31005 19.3738 3.1128C19.7661 3.05602 20.1025 2.9998 20.4697 2.84916C20.7256 2.53772 20.8651 2.24836 21.0144 1.87474L21.1313 1.52581C21.2486 1.1974 21.362 0.867327 21.4622 0.533302C21.0338 0.122045 20.8261 0.0388739 20.2215 -0.00430828C17.9438 0.158389 15.6772 2.08147 14.1637 3.67302C13.9716 3.87958 13.7769 4.08387 13.5783 4.28429L13.3463 4.51368L13.0258 4.83418V4.50335C12.0043 2.80075 10.5528 0.761986 8.55954 0.202465C7.88288 0.176396 7.28593 0.181413 6.76062 0.636688L6.57452 1.02956C6.12814 1.85619 6.01801 2.47842 6.05307 3.4152L6.07827 3.84167C6.11367 5.21051 6.49498 6.45185 6.89567 7.75098L7.07078 8.30797C6.08161 8.30797 6.08161 8.30797 3.41057 9.41162L2.88362 9.63132L2.34698 9.85101L1.83102 10.0655Z" fill="#EF4042" fill-opacity="0.8"/>
<path d="M10.71 15.2555L11.0408 15.0901L11.5267 15.3176C12.3101 15.6762 13.1603 15.7817 14.0183 15.7518C14.7485 15.0216 14.551 13.8868 14.5559 12.919L14.5663 12.4202C14.5715 11.4156 14.4553 10.5871 14.1093 9.64174C14.0183 9.30048 14.0183 9.30048 14.1837 8.80423C15.1081 9.49475 15.65 10.2114 16.1894 11.2235C16.921 12.5837 17.5449 13.2474 19.0636 13.7151L19.3899 13.8214C20.408 14.1474 21.3593 14.294 22.4237 14.3561L22.771 14.3777C23.0515 14.3951 23.332 14.4119 23.6126 14.4285V14.7593C22.5198 15.1081 21.4331 15.3822 20.3042 15.5864L20.4722 15.8772C20.6801 16.2757 20.8492 16.6406 20.9659 17.0751C20.7074 17.5817 20.7074 17.5817 20.3042 18.0677C20.1119 18.5021 19.9631 18.9412 19.808 19.391C18.3521 18.0161 18.3521 18.0161 18.2779 17.0131L18.3192 16.5789H17.9884C18.1445 17.715 18.3412 18.5969 18.9809 19.5564C17.7975 19.6797 17.1113 19.4484 16.1688 18.7293V19.0602L16.4479 19.1842C16.8304 19.391 16.8304 19.391 17.1613 19.7322C17.748 20.1111 17.9136 20.0446 18.588 20.001C19.1574 20.0214 19.5017 20.0708 19.9035 20.491C20.4249 21.1938 20.8583 21.9474 21.2703 22.7184C21.4521 23.0415 21.4521 23.0415 21.7338 23.2988C21.9584 23.5265 21.9584 23.5265 21.9584 23.8573C20.2592 24.3315 18.4889 23.3563 17.0215 22.5481L16.9959 22.534C15.8559 21.9295 15.2762 21.5015 14.3278 20.5993C14.0402 20.3528 14.0402 20.3528 13.7185 20.3939C13.3796 20.5391 13.0756 20.7054 12.757 20.8901C12.1987 21.2106 12.1987 21.2106 11.8679 21.2106C12.0428 20.8474 12.2129 20.5303 12.4572 20.2078C12.8288 19.4484 12.9542 18.7452 12.8604 17.9022C12.3656 16.8588 11.5491 16.0333 10.71 15.2555Z" fill="#EF4042"/>
<path d="M18.6497 20.3834C18.8151 20.218 18.8151 20.218 19.2102 20.1703C19.6422 20.218 19.6422 20.218 19.8953 20.4682C19.964 20.5829 20.0328 20.6975 20.1036 20.8157C20.2194 21.0026 20.2194 21.0026 20.3375 21.1933C20.4151 21.3252 20.4927 21.4571 20.5727 21.593C20.7294 21.8511 20.8866 22.109 21.0444 22.3665C21.1128 22.4817 21.1812 22.5969 21.2516 22.7156C21.4524 23.0391 21.4524 23.0391 21.7361 23.299C21.9581 23.5263 21.9581 23.5263 21.9581 23.8572C20.9606 24.0957 20.0521 24.0508 19.146 23.5263C18.5282 22.6477 18.5431 21.4171 18.6497 20.3834Z" fill="#EF4042" fill-opacity="0.8"/>
<path d="M18.6497 20.3834C18.8151 20.218 18.8151 20.218 19.2102 20.1703C19.6422 20.218 19.6422 20.218 19.8953 20.4682L20.1036 20.8157L20.3375 21.1933L20.5727 21.593C20.7294 21.8511 20.8866 22.109 21.0444 22.3665L21.2516 22.7156C21.4524 23.0391 21.4524 23.0391 21.7361 23.299C21.9581 23.5263 21.9581 23.5263 21.9581 23.8572C21.9581 23.8572 22.8639 23.5895 22.9506 23.1128C23.116 22.203 22.9612 21.2941 22.7025 20.1703C22.2506 18.2072 20.3375 15.5862 20.3375 15.5862L16.003 16.2479L15.7549 19.4736L19.146 23.5263C18.5282 22.6477 18.5431 21.4171 18.6497 20.3834Z" fill="#EF4042" fill-opacity="0.8"/>
<path d="M9.22168 2.35297C9.22168 2.2438 9.22168 2.13462 9.22168 2.02214C9.68189 2.08433 9.98061 2.13349 10.3486 2.42535C10.545 2.68381 10.545 2.68381 10.545 3.01465C9.99212 2.91591 9.64112 2.72748 9.22168 2.35297Z" fill="white" fill-opacity="0.1"/>
<path d="M8.06348 1.69123C8.11806 1.58205 8.17265 1.47287 8.2289 1.36039C8.50184 1.36039 8.77478 1.36039 9.05599 1.36039C9.11058 1.52415 9.16516 1.68792 9.22141 1.85665C8.89064 1.86368 8.55966 1.8634 8.2289 1.85665C8.17431 1.80206 8.11972 1.74747 8.06348 1.69123Z" fill="white" fill-opacity="0.1"/>
<path d="M2.60449 11.1201C2.65908 10.9018 2.71367 10.6834 2.76991 10.4584C2.98826 10.4039 3.20662 10.3493 3.43158 10.293C3.26782 10.7024 3.26782 10.7024 3.10075 11.1201C2.93698 11.1201 2.77322 11.1201 2.60449 11.1201Z" fill="white" fill-opacity="0.1"/>
</svg>
