<svg width="24" height="27" viewBox="0 0 24 27" fill="none" xmlns="http://www.w3.org/2000/svg">
<path d="M23.4623 21.4534C23.1283 21.3532 22.7982 21.2398 22.4698 21.1226L22.1209 21.0056C21.7472 20.8563 21.4579 20.7168 21.1464 20.4609C20.9958 20.0937 20.9396 19.7573 20.8828 19.365C20.6856 18.2118 20.0834 17.4922 19.1614 16.8217L19.3669 17.1545L19.637 17.5971L19.9045 18.0332C20.243 18.6339 20.4848 19.1041 20.4848 19.7992L18.1689 18.6413V19.1375L18.5204 19.2616C19.8415 19.836 19.8415 19.836 20.1539 20.4609L19.606 20.5126C19.0151 20.6227 18.8789 20.6699 18.5299 21.0863C20.5781 21.5569 22.7008 21.6819 23.4623 21.4534Z" fill="#DEC770"/>
<path d="M13.9301 1.82223C13.6907 1.24448 13.453 0.753835 13.0409 0.27983C12.4776 -0.00812156 12.1888 -0.0876158 11.5729 0.073057C9.65626 1.453 8.31926 4.16449 7.80376 6.43198L7.74755 6.73115C5.87644 5.89609 4.02155 5.37745 1.9579 5.57322C1.44687 5.82874 1.15988 6.12058 0.799973 6.56573C0.554228 8.14942 0.554228 8.14942 2.21734 11.1299C2.39831 11.448 2.5788 11.7663 2.75882 12.085L3.01955 12.5512C3.23753 12.9348 3.42704 13.2901 3.56896 13.7078C3.6481 14.0309 3.6481 14.0309 3.40596 14.3417C2.7973 15.033 2.23431 15.7121 1.89587 16.5735L1.79248 16.9871H1.46165L1.44751 17.0128C0.639271 18.4801 -0.335892 20.2505 0.138299 21.9497C0.469136 21.9497 0.469136 21.9497 0.696828 21.7251C0.954067 21.4434 0.954067 21.4434 1.27725 21.2615C2.04824 20.8496 2.80184 20.4161 3.50458 19.8948C3.9248 19.493 3.97421 19.1486 3.99462 18.5792C3.95105 17.9048 3.88453 17.7392 4.26342 17.1525C4.6046 16.8217 4.6046 16.8217 4.81137 16.4391L4.93543 16.16H5.26627C4.54719 17.1025 4.31591 17.7887 4.43918 18.9721C5.39868 18.3325 6.28064 18.1357 7.41671 17.9796V18.3104L6.98249 18.2691C5.97955 18.3434 5.97955 18.3434 4.6046 19.7992C5.05436 19.9543 5.4935 20.1032 5.92795 20.2955C6.41386 20.6987 6.41386 20.6987 6.92046 20.9571C7.35498 20.8405 7.7199 20.6713 8.11845 20.4635L8.40922 20.2955L8.51907 20.877C8.98116 23.1987 9.64278 25.5157 11.7176 26.9122C12.3199 27.0366 12.8473 27.0293 13.3873 26.7028C14.8059 25.4122 15.5694 22.4744 15.8156 20.6425L15.8531 20.2955C16.202 20.486 16.52 20.6277 16.905 20.731L17.3005 20.8124L17.7011 20.8964L18.0035 20.9571C18.1778 21.0028 18.3536 21.0458 18.5299 21.0863C18.8789 20.6699 19.0151 20.6227 19.606 20.5126L20.1539 20.4609C19.8415 19.836 19.8415 19.836 18.5204 19.2616L18.1689 19.1375V18.6413L20.4848 19.7992C20.4848 19.1041 20.243 18.6339 19.9045 18.0332L19.637 17.5971L19.3669 17.1545L19.1614 16.8217C20.0834 17.4922 20.6856 18.2118 20.8828 19.365C20.9396 19.7573 20.9958 20.0937 21.1464 20.4609C21.4579 20.7168 21.7472 20.8563 22.1209 21.0056L22.4698 21.1226C22.7982 21.2398 23.1283 21.3532 23.4623 21.4534C23.8736 21.025 23.9567 20.8173 23.9999 20.2128C23.8372 17.935 21.9141 15.6685 20.3226 14.155C20.116 13.9628 19.9117 13.7681 19.7113 13.5695L19.4819 13.3376L19.1614 13.0171H19.4923C21.1949 11.9955 23.2336 10.544 23.7931 8.55075C23.8192 7.87409 23.8142 7.27715 23.3589 6.75183L22.966 6.56573C22.1394 6.11935 21.5172 6.00922 20.5804 6.04428L20.1539 6.06948C18.7851 6.10488 17.5438 6.48619 16.2446 6.88688L15.6876 7.06199C15.6876 6.07282 15.6876 6.07282 14.584 3.40178L14.3643 2.87483L14.1446 2.33819L13.9301 1.82223Z" fill="#DEC770"/>
<path d="M8.74006 10.7012L8.90548 11.032L8.67803 11.5179C8.31939 12.3013 8.21392 13.1515 8.2438 14.0095C8.97402 14.7398 10.1088 14.5423 11.0766 14.5472L11.5754 14.5575C12.58 14.5627 13.4085 14.4466 14.3539 14.1005C14.6951 14.0095 14.6951 14.0095 15.1914 14.175C14.5009 15.0993 13.7842 15.6412 12.7721 16.1807C11.412 16.9122 10.7482 17.5361 10.2805 19.0548L10.1742 19.3811C9.84823 20.3992 9.70165 21.3505 9.63952 22.4149L9.61787 22.7622C9.60046 23.0427 9.58374 23.3233 9.56715 23.6038H9.23631C8.88755 22.511 8.61338 21.4243 8.40922 20.2954L8.11845 20.4634C7.7199 20.6713 7.35497 20.8404 6.92046 20.9571C6.41386 20.6987 6.41386 20.6987 5.92794 20.2954C5.4935 20.1031 5.05436 19.9543 4.6046 19.7992C5.97955 18.3434 5.97955 18.3434 6.98249 18.2691L7.41671 18.3104V17.9796C6.28064 18.1357 5.39867 18.3324 4.43918 18.9721C4.31591 17.7887 4.54719 17.1025 5.26627 16.16H4.93543L4.81137 16.4391C4.6046 16.8217 4.6046 16.8217 4.26342 17.1525C3.88453 17.7392 3.95105 17.9048 3.99462 18.5792C3.97421 19.1486 3.9248 19.4929 3.50458 19.8947C2.80184 20.4161 2.04824 20.8495 1.27725 21.2615C0.954067 21.4433 0.954067 21.4433 0.696828 21.725C0.469136 21.9496 0.469136 21.9496 0.138299 21.9496C-0.335892 20.2504 0.639271 18.4801 1.44751 17.0127L1.46165 16.9871C2.06606 15.8472 2.49412 15.2674 3.39627 14.3191C3.64285 14.0314 3.64285 14.0314 3.60175 13.7097C3.4565 13.3708 3.2902 13.0668 3.10549 12.7482C2.78499 12.1899 2.78499 12.1899 2.78499 11.8591C3.1482 12.034 3.46532 12.2041 3.78784 12.4484C4.54722 12.82 5.25039 12.9454 6.09336 12.8516C7.13676 12.3568 7.9623 11.5403 8.74006 10.7012Z" fill="#CEB948"/>
<path d="M3.61224 18.6414C3.77765 18.8068 3.77765 18.8068 3.82535 19.2019C3.77765 19.6339 3.77765 19.6339 3.52739 19.887C3.41273 19.9557 3.29808 20.0245 3.17995 20.0953C2.993 20.2111 2.993 20.2111 2.80227 20.3292C2.67038 20.4068 2.53849 20.4844 2.40261 20.5644C2.14447 20.7211 1.88664 20.8783 1.62915 21.0361C1.51394 21.1045 1.39872 21.1729 1.28002 21.2433C0.956469 21.4441 0.956469 21.4441 0.696613 21.7278C0.469284 21.9498 0.469284 21.9498 0.138447 21.9498C-0.100074 20.9523 -0.0552379 20.0438 0.469284 19.1377C1.34794 18.5199 2.57846 18.5348 3.61224 18.6414Z" fill="#DEC770"/>
<path d="M3.61224 18.6414C3.77765 18.8068 3.77765 18.8068 3.82535 19.2019C3.77765 19.6339 3.77765 19.6339 3.52739 19.887L3.17995 20.0953L2.80227 20.3292L2.40261 20.5644C2.14447 20.7211 1.88664 20.8783 1.62915 21.0361L1.28002 21.2433C0.956469 21.4441 0.956469 21.4441 0.696613 21.7278C0.469284 21.9498 0.469284 21.9498 0.138447 21.9498C0.138447 21.9498 0.406147 22.8556 0.882824 22.9423C1.79263 23.1077 2.70154 22.9529 3.82535 22.6942C5.78838 22.2423 8.40937 20.3292 8.40937 20.3292L7.74769 15.9947L4.52203 15.7466L0.469284 19.1377C1.34794 18.5199 2.57846 18.5348 3.61224 18.6414Z" fill="#DEC770"/>
<path d="M21.6431 9.2124C21.7523 9.2124 21.8615 9.2124 21.974 9.2124C21.9118 9.67262 21.8626 9.97133 21.5707 10.3393C21.3123 10.5358 21.3123 10.5358 20.9814 10.5358C21.0802 9.98284 21.2686 9.63184 21.6431 9.2124Z" fill="white" fill-opacity="0.1"/>
<path d="M22.3044 8.05469C22.4136 8.10928 22.5227 8.16386 22.6352 8.22011C22.6352 8.49305 22.6352 8.76599 22.6352 9.0472C22.4715 9.10179 22.3077 9.15637 22.139 9.21262C22.1319 8.88185 22.1322 8.55087 22.139 8.22011C22.1935 8.16552 22.2481 8.11093 22.3044 8.05469Z" fill="white" fill-opacity="0.1"/>
<path d="M12.875 2.5957C13.0934 2.65029 13.3117 2.70488 13.5367 2.76112C13.5913 2.97947 13.6459 3.19783 13.7021 3.4228C13.2927 3.25903 13.2927 3.25903 12.875 3.09196C12.875 2.92819 12.875 2.76443 12.875 2.5957Z" fill="white" fill-opacity="0.1"/>
</svg>
