<svg width="24" height="25" viewBox="0 0 24 25" fill="none" xmlns="http://www.w3.org/2000/svg">
<path d="M19.2701 6.3193C17.9401 5.6993 16.5001 5.2493 15.0001 4.9893C14.987 4.98888 14.9739 4.99135 14.9618 4.99653C14.9497 5.00172 14.9389 5.00949 14.9301 5.0193C14.7501 5.3493 14.5401 5.7793 14.4001 6.1093C12.8091 5.8693 11.1911 5.8693 9.60012 6.1093C9.46012 5.7693 9.25012 5.3493 9.06012 5.0193C9.05012 4.9993 9.02012 4.9893 8.99012 4.9893C7.49012 5.2493 6.06012 5.6993 4.72012 6.3193C4.71012 6.3193 4.70012 6.3293 4.69012 6.3393C1.97012 10.4093 1.22012 14.3693 1.59012 18.2893C1.59012 18.3093 1.60012 18.3293 1.62012 18.3393C3.42012 19.6593 5.15012 20.4593 6.86012 20.9893C6.89012 20.9993 6.92012 20.9893 6.93012 20.9693C7.33012 20.4193 7.69012 19.8393 8.00012 19.2293C8.02012 19.1893 8.00012 19.1493 7.96012 19.1393C7.39012 18.9193 6.85012 18.6593 6.32012 18.3593C6.28012 18.3393 6.28012 18.2793 6.31012 18.2493C6.42012 18.1693 6.53012 18.0793 6.64012 17.9993C6.66012 17.9793 6.69012 17.9793 6.71012 17.9893C10.1501 19.5593 13.8601 19.5593 17.2601 17.9893C17.2801 17.9793 17.3101 17.9793 17.3301 17.9993C17.4401 18.0893 17.5501 18.1693 17.6601 18.2593C17.7001 18.2893 17.7001 18.3493 17.6501 18.3693C17.1301 18.6793 16.5801 18.9293 16.0101 19.1493C15.9701 19.1593 15.9601 19.2093 15.9701 19.2393C16.2901 19.8493 16.6501 20.4293 17.0401 20.9793C17.0701 20.9893 17.1001 20.9993 17.1301 20.9893C18.8501 20.4593 20.5801 19.6593 22.3801 18.3393C22.4001 18.3293 22.4101 18.3093 22.4101 18.2893C22.8501 13.7593 21.6801 9.8293 19.3101 6.3393C19.3001 6.3293 19.2901 6.3193 19.2701 6.3193ZM8.52012 15.8993C7.49012 15.8993 6.63012 14.9493 6.63012 13.7793C6.63012 12.6093 7.47012 11.6593 8.52012 11.6593C9.58012 11.6593 10.4201 12.6193 10.4101 13.7793C10.4101 14.9493 9.57012 15.8993 8.52012 15.8993ZM15.4901 15.8993C14.4601 15.8993 13.6001 14.9493 13.6001 13.7793C13.6001 12.6093 14.4401 11.6593 15.4901 11.6593C16.5501 11.6593 17.3901 12.6193 17.3801 13.7793C17.3801 14.9493 16.5501 15.8993 15.4901 15.8993Z" fill="white" fill-opacity="0.6"/>
</svg>
