<svg width="24" height="25" viewBox="0 0 24 25" fill="none" xmlns="http://www.w3.org/2000/svg">
<path d="M16.017 2.98926H7.947C6.37015 2.99111 4.85844 3.6184 3.74353 4.73349C2.62862 5.84859 2.00159 7.36041 2 8.93726L2 17.0073C2.00185 18.5841 2.62914 20.0958 3.74424 21.2107C4.85933 22.3256 6.37115 22.9527 7.948 22.9543H16.018C17.5948 22.9524 19.1066 22.3251 20.2215 21.21C21.3364 20.0949 21.9634 18.5831 21.965 17.0063V8.93626C21.9631 7.35941 21.3359 5.84769 20.2208 4.73279C19.1057 3.61788 17.5938 2.99085 16.017 2.98926V2.98926ZM19.957 17.0063C19.957 17.5237 19.8551 18.036 19.6571 18.514C19.4591 18.9921 19.1689 19.4264 18.803 19.7923C18.4371 20.1581 18.0028 20.4483 17.5248 20.6463C17.0468 20.8443 16.5344 20.9463 16.017 20.9463H7.947C6.90222 20.946 5.90032 20.5308 5.16165 19.7919C4.42297 19.053 4.008 18.051 4.008 17.0063V8.93626C4.00827 7.89148 4.42349 6.88958 5.16235 6.1509C5.90122 5.41223 6.90322 4.99726 7.948 4.99726H16.018C17.0628 4.99752 18.0647 5.41275 18.8034 6.15161C19.542 6.89048 19.957 7.89248 19.957 8.93726V17.0073V17.0063Z" fill="white" fill-opacity="0.6"/>
<path d="M11.9818 7.80859C10.6133 7.81071 9.30136 8.35538 8.33372 9.3232C7.36609 10.291 6.82168 11.603 6.81982 12.9716C6.82141 14.3405 7.36585 15.6529 8.33372 16.621C9.3016 17.5891 10.6139 18.1337 11.9828 18.1356C13.3519 18.134 14.6645 17.5894 15.6326 16.6213C16.6007 15.6532 17.1452 14.3407 17.1468 12.9716C17.1447 11.6027 16.5998 10.2905 15.6315 9.32279C14.6633 8.3551 13.3507 7.81092 11.9818 7.80959V7.80859ZM11.9818 16.1276C11.1451 16.1276 10.3426 15.7952 9.7509 15.2035C9.15922 14.6118 8.82682 13.8094 8.82682 12.9726C8.82682 12.1358 9.15922 11.3333 9.7509 10.7417C10.3426 10.15 11.1451 9.81759 11.9818 9.81759C12.8186 9.81759 13.6211 10.15 14.2127 10.7417C14.8044 11.3333 15.1368 12.1358 15.1368 12.9726C15.1368 13.8094 14.8044 14.6118 14.2127 15.2035C13.6211 15.7952 12.8186 16.1276 11.9818 16.1276Z" fill="white" fill-opacity="0.6"/>
<path d="M17.1559 9.08435C17.8391 9.08435 18.3929 8.53053 18.3929 7.84735C18.3929 7.16418 17.8391 6.61035 17.1559 6.61035C16.4728 6.61035 15.9189 7.16418 15.9189 7.84735C15.9189 8.53053 16.4728 9.08435 17.1559 9.08435Z" fill="white" fill-opacity="0.6"/>
</svg>
