<svg width="24" height="25" viewBox="0 0 24 25" fill="none" xmlns="http://www.w3.org/2000/svg">
<path d="M10.7499 14.0293C10.7499 13.4593 10.2799 12.9893 9.70992 12.9893C9.13992 12.9893 8.66992 13.4593 8.66992 14.0293C8.66992 14.3051 8.77949 14.5696 8.97453 14.7646C9.16957 14.9597 9.4341 15.0693 9.70992 15.0693C9.98575 15.0693 10.2503 14.9597 10.4453 14.7646C10.6404 14.5696 10.7499 14.3051 10.7499 14.0293ZM14.0899 16.3993C13.6399 16.8493 12.6799 17.0093 11.9999 17.0093C11.3199 17.0093 10.3599 16.8493 9.90992 16.3993C9.8856 16.3732 9.85618 16.3525 9.82349 16.3383C9.79081 16.3241 9.75556 16.3167 9.71992 16.3167C9.68429 16.3167 9.64903 16.3241 9.61635 16.3383C9.58366 16.3525 9.55425 16.3732 9.52992 16.3993C9.50388 16.4236 9.48312 16.453 9.46892 16.4857C9.45473 16.5184 9.4474 16.5536 9.4474 16.5893C9.4474 16.6249 9.45473 16.6601 9.46892 16.6928C9.48312 16.7255 9.50388 16.7549 9.52992 16.7793C10.2399 17.4893 11.5999 17.5493 11.9999 17.5493C12.3999 17.5493 13.7599 17.4893 14.4699 16.7793C14.496 16.7549 14.5167 16.7255 14.5309 16.6928C14.5451 16.6601 14.5524 16.6249 14.5524 16.5893C14.5524 16.5536 14.5451 16.5184 14.5309 16.4857C14.5167 16.453 14.496 16.4236 14.4699 16.3993C14.3699 16.2993 14.1999 16.2993 14.0899 16.3993ZM14.2899 12.9893C13.7199 12.9893 13.2499 13.4593 13.2499 14.0293C13.2499 14.5993 13.7199 15.0693 14.2899 15.0693C14.8599 15.0693 15.3299 14.5993 15.3299 14.0293C15.3299 13.4593 14.8699 12.9893 14.2899 12.9893Z" fill="white" fill-opacity="0.6"/>
<path d="M12 2.98926C6.48 2.98926 2 7.46926 2 12.9893C2 18.5093 6.48 22.9893 12 22.9893C17.52 22.9893 22 18.5093 22 12.9893C22 7.46926 17.52 2.98926 12 2.98926ZM17.8 14.3193C17.82 14.4593 17.83 14.6093 17.83 14.7593C17.83 16.9993 15.22 18.8193 12 18.8193C8.78 18.8193 6.17 16.9993 6.17 14.7593C6.17 14.6093 6.18 14.4593 6.2 14.3193C5.69 14.0893 5.34 13.5793 5.34 12.9893C5.33852 12.7025 5.4218 12.4217 5.57939 12.1821C5.73698 11.9426 5.96185 11.7549 6.22576 11.6427C6.48966 11.5305 6.78083 11.4988 7.06269 11.5516C7.34456 11.6043 7.60454 11.7392 7.81 11.9393C8.82 11.2093 10.22 10.7493 11.77 10.6993L12.51 7.20926C12.52 7.13926 12.56 7.07926 12.62 7.04926C12.68 7.00926 12.75 6.99926 12.82 7.00926L15.24 7.52926C15.3221 7.36284 15.4472 7.22141 15.6023 7.11963C15.7575 7.01786 15.9371 6.95946 16.1224 6.95048C16.3077 6.9415 16.4921 6.98227 16.6564 7.06857C16.8207 7.15486 16.9589 7.28354 17.0566 7.44124C17.1544 7.59895 17.2082 7.77995 17.2125 7.96546C17.2167 8.15097 17.1712 8.33424 17.0808 8.49625C16.9903 8.65827 16.8582 8.79313 16.698 8.88686C16.5379 8.98058 16.3556 9.02975 16.17 9.02926C15.61 9.02926 15.16 8.58926 15.13 8.03926L12.96 7.57926L12.3 10.6993C13.83 10.7493 15.2 11.2193 16.2 11.9393C16.3533 11.7929 16.5367 11.6817 16.7375 11.6137C16.9382 11.5456 17.1514 11.5222 17.3621 11.5451C17.5728 11.568 17.776 11.6367 17.9574 11.7463C18.1388 11.8559 18.2941 12.0039 18.4123 12.1798C18.5306 12.3557 18.609 12.5553 18.642 12.7647C18.6751 12.9741 18.662 13.1881 18.6037 13.3919C18.5454 13.5957 18.4432 13.7843 18.3044 13.9445C18.1656 14.1046 17.9934 14.2326 17.8 14.3193Z" fill="white" fill-opacity="0.6"/>
</svg>
