<svg width="18" height="18" viewBox="0 0 18 18" fill="none" xmlns="http://www.w3.org/2000/svg">
<g clip-path="url(#clip0_45_140)">
<mask id="mask0_45_140" style="mask-type:luminance" maskUnits="userSpaceOnUse" x="0" y="0" width="18" height="18">
<path d="M18 0H0V18H18V0Z" fill="white"/>
</mask>
<g mask="url(#mask0_45_140)">
<path fill-rule="evenodd" clip-rule="evenodd" d="M18 9C18 13.9705 13.9705 18 9 18C4.02944 18 0 13.9705 0 9C0 4.02944 4.02944 0 9 0C13.9705 0 18 4.02944 18 9ZM9.3225 6.6442C8.4471 7.0083 6.69761 7.7619 4.07392 8.90497C3.64787 9.0744 3.42469 9.24015 3.40438 9.40222C3.37004 9.67612 3.71303 9.78398 4.1801 9.93083C4.24364 9.95085 4.30946 9.97155 4.37695 9.99345C4.83648 10.1429 5.45462 10.3176 5.77597 10.3245C6.06746 10.3308 6.3928 10.2107 6.75198 9.96398C9.2034 8.30925 10.4688 7.47286 10.5482 7.45483C10.6042 7.44211 10.682 7.42611 10.7346 7.47289C10.7872 7.51965 10.782 7.60822 10.7764 7.632C10.7425 7.77682 9.39608 9.02858 8.69933 9.67635C8.48213 9.87825 8.32808 10.0215 8.29658 10.0542C8.226 10.1275 8.15407 10.1968 8.085 10.2634C7.6581 10.675 7.33793 10.9836 8.1027 11.4876C8.4702 11.7298 8.76435 11.93 9.05775 12.1298C9.37815 12.3481 9.69772 12.5657 10.1112 12.8368C10.2166 12.9058 10.3171 12.9775 10.4152 13.0474C10.7881 13.3132 11.123 13.5521 11.5369 13.514C11.7774 13.4918 12.0259 13.2657 12.152 12.5913C12.4501 10.9973 13.0362 7.54387 13.1717 6.12073C13.1835 5.99605 13.1686 5.83648 13.1567 5.76643C13.1447 5.69639 13.1196 5.59658 13.0286 5.5227C12.9207 5.4352 12.7542 5.41676 12.6798 5.41806C12.3413 5.42402 11.822 5.60461 9.3225 6.6442Z" fill="white" fill-opacity="0.6"/>
</g>
</g>
<defs>
<clipPath id="clip0_45_140">
<rect width="18" height="18" fill="white"/>
</clipPath>
</defs>
</svg>
