<svg width="24" height="25" viewBox="0 0 24 25" fill="none" xmlns="http://www.w3.org/2000/svg">
<path d="M17.812 6.00588H6.145C3.855 6.00588 2 7.84088 2 10.1049V15.8729C2 18.1369 3.856 19.9729 6.145 19.9729H17.812C20.102 19.9729 21.957 18.1369 21.957 15.8729V10.1049C21.957 7.84088 20.101 6.00488 17.812 6.00488V6.00588ZM15.009 13.2689L9.552 15.8439C9.51872 15.8599 9.48192 15.8673 9.44503 15.8652C9.40815 15.8632 9.37237 15.8519 9.34103 15.8323C9.3097 15.8128 9.28382 15.7856 9.2658 15.7534C9.24779 15.7211 9.23822 15.6848 9.238 15.6479V10.3389C9.23867 10.3018 9.24872 10.2654 9.26722 10.2332C9.28573 10.201 9.31208 10.174 9.34382 10.1548C9.37556 10.1355 9.41167 10.1246 9.44877 10.123C9.48587 10.1215 9.52276 10.1293 9.556 10.1459L15.014 12.8809C15.0504 12.899 15.0809 12.927 15.102 12.9617C15.1232 12.9964 15.1341 13.0363 15.1336 13.077C15.1331 13.1176 15.1211 13.1572 15.0991 13.1913C15.077 13.2255 15.0458 13.2527 15.009 13.2699V13.2689Z" fill="white" fill-opacity="0.6"/>
</svg>
