<svg width="41" height="35" viewBox="0 0 41 35" fill="none" xmlns="http://www.w3.org/2000/svg">
<g clip-path="url(#clip0_27_56)">
<path d="M2.30859 4.84472C1.20403 4.84472 0.308594 3.94929 0.308594 2.84472C0.308594 1.74015 1.20403 0.844727 2.30859 0.844727V4.84472ZM40.3086 4.84472H2.30859V0.844727H40.3086V4.84472Z" fill="white"/>
<path d="M2.30859 19.8447C1.20403 19.8447 0.308594 18.9493 0.308594 17.8447C0.308594 16.7401 1.20403 15.8447 2.30859 15.8447V19.8447ZM40.3086 19.8447H2.30859V15.8447H40.3086V19.8447Z" fill="white"/>
<path d="M2.30859 34.8447C1.20403 34.8447 0.308594 33.9493 0.308594 32.8447C0.308594 31.7401 1.20403 30.8447 2.30859 30.8447V34.8447ZM40.3086 34.8447H2.30859V30.8447H40.3086V34.8447Z" fill="white"/>
</g>
<defs>
<clipPath id="clip0_27_56">
<rect width="41" height="35" fill="white"/>
</clipPath>
</defs>
</svg>
