<svg width="219" height="22" viewBox="0 0 219 22" fill="none" xmlns="http://www.w3.org/2000/svg">
<mask id="mask0_142_846" style="mask-type:luminance" maskUnits="userSpaceOnUse" x="0" y="2" width="91" height="18">
<path d="M91 2.5H0V19.5H91V2.5Z" fill="white"/>
</mask>
<g mask="url(#mask0_142_846)">
<path d="M8.92923 14.7029C15.3467 15.4987 21.3247 16.2061 27.3026 17.0019C27.7422 17.0904 28.0938 17.6209 29.0608 18.4168C26.2477 18.7705 24.0499 19.2126 21.8521 19.301C16.05 19.4779 10.3358 19.4779 4.53369 19.4779C3.8304 19.4779 3.12712 19.5663 2.42383 19.3895C0.138148 18.9473 -0.653056 17.4441 0.577697 15.4103C1.19307 14.4376 1.89636 13.5533 2.68756 12.7575C5.67653 9.75098 8.75341 6.8329 11.8303 3.91483C12.3578 3.38427 13.149 3.11899 14.2039 2.5C14.3797 7.00975 9.89625 8.24772 8.92923 11.7848C9.72043 11.6079 10.4237 11.5195 11.0391 11.3426C34.775 4.79909 58.4231 5.50651 81.9832 11.8732C84.4447 12.4922 86.8183 13.4649 89.1919 14.3491C90.4226 14.7913 91.4775 15.764 90.7743 17.2672C90.1589 18.7705 88.9281 18.7705 87.5216 18.1515C71.7855 11.0774 55.0824 10.2815 38.2036 10.5468C29.4125 10.6352 20.7972 11.6079 12.2698 13.6417C11.2149 13.907 10.16 14.2607 8.92923 14.7029Z" fill="#F5D00A" fill-opacity="0.8"/>
</g>
<path d="M110.024 15.528H113.784V17H108.2V5.87999H110.024V15.528ZM123.389 12.376C123.389 12.7067 123.368 13.0053 123.325 13.272H116.589C116.643 13.976 116.904 14.5413 117.373 14.968C117.843 15.3947 118.419 15.608 119.101 15.608C120.083 15.608 120.776 15.1973 121.181 14.376H123.149C122.883 15.1867 122.397 15.8533 121.693 16.376C121 16.888 120.136 17.144 119.101 17.144C118.259 17.144 117.501 16.9573 116.829 16.584C116.168 16.2 115.645 15.6667 115.261 14.984C114.888 14.2907 114.701 13.4907 114.701 12.584C114.701 11.6773 114.883 10.8827 115.245 10.2C115.619 9.50666 116.136 8.97332 116.797 8.59999C117.469 8.22666 118.237 8.03999 119.101 8.03999C119.933 8.03999 120.675 8.22132 121.325 8.58399C121.976 8.94666 122.483 9.45866 122.845 10.12C123.208 10.7707 123.389 11.5227 123.389 12.376ZM121.485 11.8C121.475 11.128 121.235 10.5893 120.765 10.184C120.296 9.77866 119.715 9.57599 119.021 9.57599C118.392 9.57599 117.853 9.77866 117.405 10.184C116.957 10.5787 116.691 11.1173 116.605 11.8H121.485ZM127.312 9.67199V14.552C127.312 14.8827 127.387 15.1227 127.536 15.272C127.696 15.4107 127.963 15.48 128.336 15.48H129.456V17H128.016C127.195 17 126.566 16.808 126.128 16.424C125.691 16.04 125.472 15.416 125.472 14.552V9.67199H124.432V8.18399H125.472V5.99199H127.312V8.18399H129.456V9.67199H127.312ZM142.798 13.832C142.798 14.3653 142.664 14.8667 142.398 15.336C142.142 15.8053 141.758 16.2 141.246 16.52C140.744 16.84 140.147 17.032 139.454 17.096V18.392H138.414V17.096C137.411 17 136.6 16.6853 135.982 16.152C135.363 15.6187 135.054 14.9147 135.054 14.04H137.006C137.038 14.456 137.171 14.8027 137.406 15.08C137.64 15.3467 137.976 15.5173 138.414 15.592V12.072C137.699 11.8907 137.118 11.7093 136.67 11.528C136.222 11.336 135.838 11.0373 135.518 10.632C135.208 10.2267 135.054 9.67199 135.054 8.96799C135.054 8.08266 135.363 7.35199 135.982 6.77599C136.6 6.18932 137.411 5.84799 138.414 5.75199V4.45599H139.454V5.75199C140.392 5.83732 141.144 6.13599 141.71 6.64799C142.286 7.14932 142.611 7.84266 142.686 8.72799H140.734C140.702 8.39732 140.574 8.10399 140.35 7.84799C140.126 7.58132 139.827 7.39999 139.454 7.30399V10.76C140.168 10.9307 140.75 11.112 141.198 11.304C141.646 11.4853 142.024 11.7787 142.334 12.184C142.643 12.5787 142.798 13.128 142.798 13.832ZM136.91 8.87199C136.91 9.30932 137.038 9.65066 137.294 9.89599C137.56 10.1413 137.934 10.3387 138.414 10.488V7.25599C137.955 7.30932 137.587 7.47466 137.31 7.75199C137.043 8.02932 136.91 8.40266 136.91 8.87199ZM139.454 15.592C139.923 15.5173 140.291 15.3307 140.558 15.032C140.824 14.7227 140.958 14.3547 140.958 13.928C140.958 13.5013 140.824 13.1707 140.558 12.936C140.302 12.6907 139.934 12.4933 139.454 12.344V15.592ZM149.332 5.87999C150.516 5.87999 151.551 6.10932 152.436 6.56799C153.332 7.01599 154.02 7.66666 154.5 8.51999C154.991 9.36266 155.236 10.3493 155.236 11.48C155.236 12.6107 154.991 13.592 154.5 14.424C154.02 15.256 153.332 15.896 152.436 16.344C151.551 16.7813 150.516 17 149.332 17H145.7V5.87999H149.332ZM149.332 15.512C150.633 15.512 151.631 15.16 152.324 14.456C153.017 13.752 153.364 12.76 153.364 11.48C153.364 10.1893 153.017 9.18132 152.324 8.45599C151.631 7.73066 150.633 7.36799 149.332 7.36799H147.524V15.512H149.332ZM162.116 17.112C161.081 17.112 160.126 16.872 159.252 16.392C158.388 15.9013 157.7 15.224 157.188 14.36C156.686 13.4853 156.436 12.504 156.436 11.416C156.436 10.328 156.686 9.35199 157.188 8.48799C157.7 7.62399 158.388 6.95199 159.252 6.47199C160.126 5.98132 161.081 5.73599 162.116 5.73599C163.161 5.73599 164.116 5.98132 164.98 6.47199C165.854 6.95199 166.542 7.62399 167.044 8.48799C167.545 9.35199 167.796 10.328 167.796 11.416C167.796 12.504 167.545 13.4853 167.044 14.36C166.542 15.224 165.854 15.9013 164.98 16.392C164.116 16.872 163.161 17.112 162.116 17.112ZM162.116 15.528C162.852 15.528 163.508 15.3627 164.084 15.032C164.66 14.6907 165.108 14.2107 165.428 13.592C165.758 12.9627 165.924 12.2373 165.924 11.416C165.924 10.5947 165.758 9.87466 165.428 9.25599C165.108 8.63732 164.66 8.16266 164.084 7.83199C163.508 7.50132 162.852 7.33599 162.116 7.33599C161.38 7.33599 160.724 7.50132 160.148 7.83199C159.572 8.16266 159.118 8.63732 158.788 9.25599C158.468 9.87466 158.308 10.5947 158.308 11.416C158.308 12.2373 158.468 12.9627 158.788 13.592C159.118 14.2107 159.572 14.6907 160.148 15.032C160.724 15.3627 161.38 15.528 162.116 15.528ZM177.639 9.07999C177.351 8.52532 176.951 8.10932 176.439 7.83199C175.927 7.54399 175.335 7.39999 174.663 7.39999C173.927 7.39999 173.271 7.56532 172.695 7.89599C172.119 8.22666 171.665 8.69599 171.335 9.30399C171.015 9.91199 170.855 10.616 170.855 11.416C170.855 12.216 171.015 12.9253 171.335 13.544C171.665 14.152 172.119 14.6213 172.695 14.952C173.271 15.2827 173.927 15.448 174.663 15.448C175.655 15.448 176.46 15.1707 177.079 14.616C177.697 14.0613 178.076 13.3093 178.215 12.36H174.039V10.904H180.167V12.328C180.049 13.192 179.74 13.9867 179.239 14.712C178.748 15.4373 178.103 16.0187 177.303 16.456C176.513 16.8827 175.633 17.096 174.663 17.096C173.617 17.096 172.663 16.856 171.799 16.376C170.935 15.8853 170.247 15.208 169.735 14.344C169.233 13.48 168.983 12.504 168.983 11.416C168.983 10.328 169.233 9.35199 169.735 8.48799C170.247 7.62399 170.935 6.95199 171.799 6.47199C172.673 5.98132 173.628 5.73599 174.663 5.73599C175.847 5.73599 176.897 6.02932 177.815 6.61599C178.743 7.19199 179.415 8.01332 179.831 9.07999H177.639ZM183.79 15.528H187.55V17H181.966V5.87999H183.79V15.528ZM197.055 17.144C196.223 17.144 195.471 16.9573 194.799 16.584C194.127 16.2 193.599 15.6667 193.215 14.984C192.831 14.2907 192.639 13.4907 192.639 12.584C192.639 11.688 192.837 10.8933 193.231 10.2C193.626 9.50666 194.165 8.97332 194.847 8.59999C195.53 8.22666 196.293 8.03999 197.135 8.03999C197.978 8.03999 198.741 8.22666 199.423 8.59999C200.106 8.97332 200.645 9.50666 201.039 10.2C201.434 10.8933 201.631 11.688 201.631 12.584C201.631 13.48 201.429 14.2747 201.023 14.968C200.618 15.6613 200.063 16.2 199.359 16.584C198.666 16.9573 197.898 17.144 197.055 17.144ZM197.055 15.56C197.525 15.56 197.962 15.448 198.367 15.224C198.783 15 199.119 14.664 199.375 14.216C199.631 13.768 199.759 13.224 199.759 12.584C199.759 11.944 199.637 11.4053 199.391 10.968C199.146 10.52 198.821 10.184 198.415 9.95999C198.01 9.73599 197.573 9.62399 197.103 9.62399C196.634 9.62399 196.197 9.73599 195.791 9.95999C195.397 10.184 195.082 10.52 194.847 10.968C194.613 11.4053 194.495 11.944 194.495 12.584C194.495 13.5333 194.735 14.2693 195.215 14.792C195.706 15.304 196.319 15.56 197.055 15.56ZM211.418 8.18399V17H209.594V15.96C209.306 16.3227 208.928 16.6107 208.458 16.824C208 17.0267 207.509 17.128 206.986 17.128C206.293 17.128 205.669 16.984 205.114 16.696C204.57 16.408 204.138 15.9813 203.818 15.416C203.509 14.8507 203.354 14.168 203.354 13.368V8.18399H205.162V13.096C205.162 13.8853 205.36 14.4933 205.754 14.92C206.149 15.336 206.688 15.544 207.37 15.544C208.053 15.544 208.592 15.336 208.986 14.92C209.392 14.4933 209.594 13.8853 209.594 13.096V8.18399H211.418ZM215.953 9.67199V14.552C215.953 14.8827 216.028 15.1227 216.177 15.272C216.337 15.4107 216.604 15.48 216.977 15.48H218.097V17H216.657C215.836 17 215.206 16.808 214.769 16.424C214.332 16.04 214.113 15.416 214.113 14.552V9.67199H213.073V8.18399H214.113V5.99199H215.953V8.18399H218.097V9.67199H215.953Z" fill="#F5D00A" fill-opacity="0.8"/>
</svg>
