<svg width="122" height="172" viewBox="0 0 122 172" fill="none" xmlns="http://www.w3.org/2000/svg">
<g clip-path="url(#clip0_141_828)">
<path d="M71.6149 155.767C72.043 155.881 72.175 155.994 72.3485 156.005C83.9489 154.142 93.4999 148.706 100.251 138.915C101.962 136.447 103.002 133.587 103.41 130.532C104.34 123.99 101.062 117.89 95.1483 115.078C92.0746 113.594 88.8744 112.715 85.4193 113.344C84.6138 114.747 83.8592 116.172 82.9934 117.431C81.5711 119.48 79.6529 120.85 77.1088 121.132C75.2285 121.384 73.701 120.765 73.2185 119.616C72.5851 118.106 73.1662 116.672 74.3054 115.761C75.886 114.493 77.6287 113.409 79.3809 112.449C80.5182 111.836 81.8478 111.48 83.0756 111.082C84.5551 104.942 80.1034 100.276 72.6108 100.044C72.0751 100.782 71.5186 101.57 70.932 102.287C68.6892 104.898 65.8714 106.44 62.3807 106.279C61.0436 106.215 59.7084 105.853 59.126 104.364C58.6943 103.235 59.2754 101.801 60.6711 100.696C62.9081 98.9775 65.5371 98.1933 68.2359 97.676C69.1864 97.5241 70.137 97.3723 71.0667 97.2717C73.6803 87.8923 68.26 78.3009 58.9663 78.7119C59.287 78.0664 59.4644 77.4822 59.7925 77.2572C60.1924 77.0016 60.8355 77.0235 61.3352 77.1066C65.9951 78.0397 69.8099 80.1812 71.8327 84.6985C73.3728 88.0661 73.8909 91.616 73.6828 95.349C73.6487 95.8721 73.6147 96.3951 73.6316 96.9387C73.6108 96.99 73.6919 97.0824 73.8333 97.3187C74.3123 97.453 74.8724 97.6799 75.4739 97.8042C82.7324 99.4916 85.5494 102.78 86.1119 110.463C86.8059 110.506 87.6018 110.59 88.3674 110.601C92.8275 110.857 96.7895 112.343 100.221 115.283C105.816 120.054 107.729 127.331 105.323 134.587C104.021 138.533 101.865 141.954 99.0375 144.984C92.1698 152.283 83.9107 156.871 73.8568 157.988C73.3458 158.079 72.8045 158.098 72.2934 158.189C72.2217 158.22 72.1293 158.302 71.8521 158.547C73.4171 159.659 75.1087 160.165 76.7795 160.722C78.3786 161.31 80.0702 161.816 81.8428 162.415C81.1505 163.685 80.2301 163.909 79.24 163.866C78.0972 163.761 76.9129 163.758 75.8738 163.397C73.0829 162.386 70.2618 161.303 67.5237 160.015C65.3966 158.975 65.2629 157.549 66.9567 156.147C70.58 153.201 74.2542 150.275 77.9284 147.35C78.5339 146.879 79.1996 146.552 80.0503 146.062C80.5611 147.581 79.8217 148.236 79.154 148.86C76.6077 151.05 74.2141 153.301 71.6149 155.767ZM61.276 103.446C64.976 104.408 68.0785 103.04 69.5179 99.9249C66.5532 100.513 63.7526 100.99 61.276 103.446ZM75.2686 118.358C78.5632 118.858 80.819 117.386 81.7794 114.136C79.1805 114.992 76.8777 115.849 75.2686 118.358Z" fill="#F5D00A"/>
</g>
<path d="M15.2071 89.2874L17.5313 86.3318L18.6884 87.2417L15.2367 91.6311L6.49563 84.7575L7.62311 83.3237L15.2071 89.2874Z" fill="#F5D00A"/>
<path d="M21.6038 77.3076C21.8444 77.5345 22.047 77.7549 22.2117 77.9689L17.5899 82.8691C18.1386 83.3134 18.7292 83.5112 19.3616 83.4625C19.994 83.4138 20.5444 83.1412 21.0128 82.6446C21.6862 81.9307 21.8631 81.1446 21.5438 80.2861L22.8941 78.8545C23.3009 79.6047 23.4528 80.4152 23.35 81.286C23.2467 82.1416 22.8401 82.9458 22.1302 83.6985C21.552 84.3115 20.8966 84.7344 20.1639 84.9671C19.4308 85.1847 18.6842 85.199 17.9241 85.0099C17.1635 84.8057 16.4535 84.3926 15.7939 83.7705C15.1343 83.1484 14.6807 82.4712 14.4329 81.739C14.1847 80.9917 14.1517 80.2494 14.3339 79.5121C14.5234 78.7671 14.9145 78.0804 15.5074 77.4518C16.0782 76.8466 16.7188 76.4317 17.4291 76.2072C18.1394 75.9827 18.8595 75.9654 19.5894 76.1554C20.3116 76.338 20.9831 76.7221 21.6038 77.3076ZM19.8784 78.2975C19.3822 77.8441 18.8257 77.6491 18.2088 77.7124C17.5919 77.7757 17.0456 78.0596 16.5699 78.5639C16.138 79.0218 15.9159 79.5527 15.9033 80.1567C15.8831 80.7534 16.0919 81.317 16.53 81.8475L19.8784 78.2975Z" fill="#F5D00A"/>
<path d="M22.541 72.5488L25.9867 76.4005C26.2712 76.7185 26.5415 76.8846 26.7975 76.8988C27.0464 76.9051 27.3379 76.7589 27.6718 76.4602L28.4707 75.7455L29.2921 76.6637L28.3143 77.5384C27.7101 78.079 27.1325 78.3452 26.5815 78.3372C26.0305 78.3292 25.4705 78.0072 24.9016 77.3713L21.4559 73.5196L20.6092 74.277L19.8091 73.3827L20.6558 72.6253L19.1836 70.9797L20.2688 70.0089L21.7409 71.6545L23.4462 70.129L24.2462 71.0233L22.541 72.5488Z" fill="#F5D00A"/>
<path d="M38.2006 66.1902C38.5009 66.631 38.673 67.1203 38.7169 67.6584C38.7696 68.1904 38.6745 68.7327 38.4315 69.2855C38.1974 69.8322 37.8119 70.3272 37.2749 70.7705L38.0046 71.8415L37.1452 72.4271L36.4154 71.3561C35.5328 71.8413 34.6856 72.0377 33.8741 71.9453C33.0625 71.8529 32.4105 71.4452 31.918 70.7224L33.5311 69.6233C33.7918 69.9491 34.0972 70.1605 34.4473 70.2576C34.7914 70.3458 35.1651 70.2977 35.5686 70.1131L33.5866 67.2041C32.8939 67.4567 32.3114 67.6341 31.8391 67.7365C31.3607 67.8301 30.8752 67.7995 30.3825 67.6447C29.8987 67.4839 29.4585 67.1126 29.0621 66.5308C28.5637 65.7991 28.4079 65.0211 28.5948 64.1968C28.7758 63.3636 29.2536 62.6251 30.0281 61.9812L29.2984 60.9101L30.1579 60.3246L30.8876 61.3956C31.7114 60.9376 32.501 60.761 33.2565 60.8658C34.0148 60.9558 34.674 61.3456 35.2342 62.0352L33.6211 63.1343C33.4084 62.8791 33.1375 62.7087 32.8082 62.6233C32.473 62.529 32.1241 62.5473 31.7615 62.6782L33.7074 65.5343C34.3941 65.2729 34.9766 65.0955 35.455 65.0019C35.9273 64.8995 36.4054 64.9287 36.8893 65.0895C37.3671 65.2415 37.8042 65.6084 38.2006 66.1902ZM30.5419 65.4064C30.7882 65.7679 31.0861 65.9779 31.4358 66.0365C31.7944 66.0891 32.214 66.0419 32.6948 65.8951L30.875 63.2241C30.5259 63.5264 30.3149 63.8703 30.2419 64.2556C30.1776 64.635 30.2777 65.0186 30.5419 65.4064ZM36.4281 69.5276C36.7739 69.2016 36.9729 68.8401 37.0251 68.4432C37.0713 68.0374 36.9743 67.6582 36.7341 67.3056C36.4938 66.953 36.1975 66.7548 35.845 66.711C35.4953 66.6524 35.08 66.6965 34.5993 66.8433L36.4281 69.5276Z" fill="#F5D00A"/>
<path d="M39.9259 56.0876C40.9741 55.5372 41.9968 55.2592 42.9939 55.2537C43.9954 55.2338 44.907 55.49 45.7287 56.0223C46.5549 56.5403 47.2308 57.2998 47.7565 58.3008C48.2822 59.3019 48.5212 60.2847 48.4736 61.2495C48.4354 62.2093 48.1238 63.0957 47.5388 63.9089C46.9583 64.7077 46.1439 65.3824 45.0957 65.9328L41.88 67.6214L36.7102 57.7762L39.9259 56.0876ZM44.4039 64.6154C45.556 64.0104 46.2754 63.2351 46.5619 62.2895C46.8485 61.3438 46.6942 60.3044 46.0991 59.1711C45.4991 58.0284 44.7235 57.2971 43.7725 56.9773C42.8214 56.6575 41.7698 56.8 40.6176 57.4051L39.0169 58.2456L42.8031 65.456L44.4039 64.6154Z" fill="#F5D00A"/>
<path d="M56.5192 60.9C55.5494 61.2605 54.5709 61.3682 53.5838 61.2231C52.603 61.0642 51.7221 60.6691 50.9411 60.0376C50.1664 59.3925 49.5895 58.56 49.2104 57.5402C48.8313 56.5204 48.7261 55.5182 48.895 54.5336C49.0738 53.5454 49.4846 52.6758 50.1271 51.9248C50.776 51.1601 51.5854 50.5975 52.5552 50.237C53.535 49.8727 54.5153 49.77 55.4962 49.9289C56.4833 50.074 57.3623 50.4641 58.1333 51.0993C58.9042 51.7345 59.4793 52.5619 59.8584 53.5818C60.2375 54.6016 60.3445 55.6087 60.1794 56.6033C60.0105 57.5878 59.6017 58.4624 58.9528 59.2271C58.3102 59.9781 57.499 60.5357 56.5192 60.9ZM55.9672 59.4153C56.6571 59.1588 57.2144 58.7752 57.6391 58.2646C58.06 57.7439 58.3127 57.1379 58.3971 56.4465C58.4877 55.7414 58.3899 55.0039 58.1037 54.2341C57.8175 53.4642 57.4117 52.8469 56.8862 52.3823C56.3706 51.9139 55.7853 51.6251 55.1302 51.5158C54.4751 51.4066 53.8026 51.4802 53.1127 51.7367C52.4228 51.9931 51.8656 52.3767 51.4409 52.8873C51.0162 53.398 50.7567 54.0009 50.6623 54.696C50.5779 55.3874 50.6789 56.118 50.9651 56.8879C51.2513 57.6577 51.654 58.2819 52.1732 58.7602C52.6987 59.2249 53.2909 59.5169 53.9497 59.6361C54.6049 59.7453 55.2774 59.6717 55.9672 59.4153Z" fill="#F5D00A"/>
<path d="M69.4391 48.897C69.0355 48.4199 68.5533 48.1027 67.9926 47.9456C67.4296 47.778 66.8204 47.7686 66.1651 47.9174C65.4473 48.0803 64.8442 48.3867 64.3557 48.8366C63.8671 49.2866 63.5289 49.8446 63.341 50.5107C63.1635 51.1745 63.1633 51.8964 63.3404 52.6766C63.5174 53.4567 63.8305 54.1131 64.2794 54.6456C64.7365 55.1653 65.2824 55.5227 65.9173 55.7176C66.5522 55.9126 67.2286 55.9287 67.9463 55.7658C68.9137 55.5462 69.6377 55.0975 70.1183 54.4197C70.5988 53.7418 70.8017 52.9247 70.7268 51.9682L66.6543 52.8925L66.3321 51.4726L72.3081 50.1163L72.6233 51.5049C72.7001 52.3735 72.5743 53.2169 72.2459 54.0352C71.928 54.8512 71.4273 55.5609 70.7439 56.1645C70.0686 56.7552 69.2577 57.1581 68.3111 57.3729C67.2917 57.6043 66.3076 57.5815 65.3587 57.3046C64.4076 57.0174 63.5867 56.5091 62.8962 55.7799C62.2161 55.0482 61.7556 54.1519 61.5148 53.0909C61.274 52.0299 61.3024 51.0226 61.6001 50.0691C61.9082 49.1132 62.4304 48.3056 63.1667 47.6463C63.9111 46.9742 64.7878 46.5236 65.7968 46.2946C66.9514 46.0326 68.0409 46.0861 69.0654 46.4552C70.0978 46.8115 70.935 47.4637 71.5767 48.4119L69.4391 48.897Z" fill="#F5D00A"/>
<path d="M76.9876 54.2551L80.7201 53.8007L80.898 55.2619L75.3549 55.9368L74.011 44.8983L75.8216 44.6778L76.9876 54.2551Z" fill="#F5D00A"/>
<path d="M90.0785 55.1321C89.2466 55.1203 88.4973 54.9231 87.8306 54.5403C87.1641 54.1469 86.6437 53.6062 86.2693 52.9182C85.8951 52.2195 85.7144 51.4169 85.7272 50.5103C85.7398 49.6144 85.9483 48.8226 86.3527 48.1349C86.7571 47.4472 87.3032 46.9215 87.9911 46.5578C88.6789 46.1941 89.4441 46.0182 90.2867 46.0301C91.1293 46.042 91.8893 46.2393 92.5666 46.6223C93.2439 47.0052 93.775 47.546 94.1599 48.2449C94.5448 48.9437 94.7309 49.741 94.7183 50.637C94.7057 51.5329 94.4918 52.3246 94.0768 53.0122C93.6617 53.6997 93.0995 54.2305 92.3902 54.6046C91.6916 54.9681 90.9211 55.1439 90.0785 55.1321ZM90.1008 53.5482C90.5701 53.5548 91.009 53.449 91.4174 53.2307C91.8365 53.0126 92.1772 52.6814 92.4395 52.237C92.7018 51.7927 92.8374 51.2505 92.8465 50.6106C92.8555 49.9707 92.7404 49.4303 92.5013 48.9896C92.2623 48.5382 91.9417 48.1976 91.5396 47.9679C91.1374 47.7382 90.7017 47.6201 90.2324 47.6135C89.7631 47.6069 89.3243 47.7127 88.9158 47.931C88.518 48.1494 88.1987 48.4809 87.9577 48.9256C87.7169 49.3596 87.592 49.8965 87.583 50.5365C87.5696 51.4857 87.7992 52.225 88.2718 52.7544C88.7552 53.2732 89.3649 53.5378 90.1008 53.5482Z" fill="#F5D00A"/>
<path d="M105.296 47.4138L104.225 56.1645L102.414 55.9429L102.541 54.9106C102.211 55.2356 101.8 55.4754 101.308 55.6301C100.828 55.7756 100.329 55.8165 99.8099 55.753C99.1217 55.6688 98.5198 55.45 98.0043 55.0967C97.4993 54.7448 97.1223 54.2688 96.8734 53.6687C96.6351 53.07 96.5645 52.3736 96.6617 51.5795L97.2916 46.434L99.0862 46.6536L98.4894 51.5293C98.3935 52.3127 98.5154 52.9402 98.8553 53.4117C99.1965 53.8725 99.7059 54.1445 100.384 54.2274C101.061 54.3104 101.621 54.1694 102.063 53.8044C102.518 53.4301 102.793 52.8513 102.889 52.0678L103.485 47.1922L105.296 47.4138Z" fill="#F5D00A"/>
<path d="M109.861 49.868L108.861 54.6444C108.794 54.9681 108.818 55.2183 108.933 55.3951C109.061 55.5636 109.308 55.6861 109.674 55.7626L110.77 55.9921L110.458 57.4799L109.049 57.1848C108.245 57.0165 107.668 56.6996 107.319 56.2341C106.97 55.7686 106.883 55.1131 107.06 54.2674L108.061 49.491L107.043 49.2778L107.348 47.8214L108.365 48.0345L108.815 45.8891L110.616 46.2661L110.166 48.4116L112.265 48.8509L111.96 50.3074L109.861 49.868Z" fill="#F5D00A"/>
<defs>
<clipPath id="clip0_141_828">
<rect width="64" height="75" fill="white" transform="translate(59.999 76.1621) rotate(22.0494)"/>
</clipPath>
</defs>
</svg>
