<svg width="25" height="22" viewBox="0 0 25 22" fill="none" xmlns="http://www.w3.org/2000/svg">
<path d="M12.819 20.5325C9.60705 19.7696 6.53477 17.9112 3.99048 15.8385C1.75632 14.0183 1.10293 12.3297 1.72119 9.55903C3.14325 3.18609 7.65473 0.609137 13.9225 1.0414C19.0231 1.39316 23.1577 5.92334 23.3883 11.0823C23.692 17.8772 16.3748 20.0467 10.8605 20.175C8.13333 20.2384 6.30327 18.0933 6.38412 15.4654C6.51558 11.193 11.2612 8.38435 14.9328 7.19648C19.1099 5.84509 19.4654 11.5546 19.5336 14.4707C19.6036 17.461 19.5415 19.5295 16.0519 19.3978C9.63231 19.1556 10.9523 6.53842 16.3317 5.26913C20.1551 4.36698 20.0621 9.83771 20.0621 12.3412C20.0621 14.7796 19.7285 17.884 16.5182 16.6467C14.1955 15.7515 12.419 12.3968 12.7413 9.94761C13.0404 7.67379 16.7059 7.99582 18.1969 8.68862C19.8256 9.44541 21.4928 11.4425 21.1967 13.3671C20.936 15.0616 13.9309 13.716 12.819 13.5381" stroke="#EF4042" stroke-width="2" stroke-linecap="round"/>
</svg>
