<svg width="28" height="21" viewBox="0 0 28 21" fill="none" xmlns="http://www.w3.org/2000/svg">
<path d="M4.89008 13.3853C4.89008 1.99059 8.66388 1.63124 19.0003 1.93525C24.7075 2.10311 16.5382 9.0927 16.8028 4.59537C16.9685 1.77858 21.7561 2.96413 22.3543 5.058C23.1895 7.98116 22.8856 12.0473 20.2725 13.9636C14.1067 18.4852 -1.47341 14.8955 1.99865 5.058C3.43693 0.982885 16.122 0.752206 19.3472 1.12565C25.3878 1.82508 29.5513 11.6616 24.7831 16.1611C22.6009 18.2203 9.72992 20.8853 7.20323 18.3586C4.08821 15.2436 11.0157 9.09096 12.7548 7.83377C16.9301 4.81544 30.1283 1.07572 25.0144 11.3035C22.4185 16.4953 14.2583 19.4155 14.2583 11.3035" stroke="#EF4042" stroke-width="2" stroke-linecap="round"/>
</svg>
