<svg width="28" height="21" viewBox="0 0 28 21" fill="none" xmlns="http://www.w3.org/2000/svg">
<path d="M4.89008 13.3804C4.89008 1.98571 8.66388 1.62636 19.0003 1.93037C24.7075 2.09823 16.5382 9.08782 16.8028 4.59049C16.9685 1.7737 21.7561 2.95925 22.3543 5.05312C23.1895 7.97628 22.8856 12.0424 20.2725 13.9587C14.1067 18.4803 -1.47341 14.8906 1.99865 5.05312C3.43693 0.978002 16.122 0.747323 19.3472 1.12077C25.3878 1.8202 29.5513 11.6567 24.7831 16.1562C22.6009 18.2155 9.72992 20.8804 7.20323 18.3537C4.08821 15.2387 11.0157 9.08607 12.7548 7.82889C16.9301 4.81055 30.1283 1.07084 25.0144 11.2986C22.4185 16.4904 14.2583 19.4106 14.2583 11.2986" stroke="#EF4042" stroke-width="2" stroke-linecap="round"/>
</svg>
