<svg width="28" height="21" viewBox="0 0 28 21" fill="none" xmlns="http://www.w3.org/2000/svg">
<path d="M23.4634 13.3804C23.4634 1.98571 19.6896 1.62636 9.35325 1.93037C3.64603 2.09823 11.8153 9.08782 11.5507 4.59049C11.385 1.7737 6.59744 2.95925 5.99919 5.05312C5.164 7.97628 5.46791 12.0424 8.08102 13.9587C14.2468 18.4803 29.8269 14.8906 26.3549 5.05312C24.9166 0.978002 12.2315 0.747323 9.00628 1.12077C2.96576 1.8202 -1.19778 11.6567 3.57038 16.1562C5.75257 18.2155 18.6236 20.8804 21.1503 18.3537C24.2653 15.2387 17.3378 9.08607 15.5987 7.82889C11.4234 4.81055 -1.77481 1.07084 3.33907 11.2986C5.93499 16.4904 14.0952 19.4106 14.0952 11.2986" stroke="#EF4042" stroke-width="2" stroke-linecap="round"/>
</svg>
